<svg xmlns="http://www.w3.org/2000/svg" xmlns:xlink="http://www.w3.org/1999/xlink" width="117" zoomAndPan="magnify" viewBox="0 0 87.75 67.499998" height="90" preserveAspectRatio="xMidYMid meet" version="1.2"><defs><clipPath id="6a64bb9055"><path d="M 9.378906 8 L 77.871094 8 L 77.871094 64 L 9.378906 64 Z M 9.378906 8 "/></clipPath><clipPath id="9722453798"><path d="M 63 2.652344 L 66 2.652344 L 66 10 L 63 10 Z M 63 2.652344 "/></clipPath></defs><g id="84d505fab9"><path style=" stroke:none;fill-rule:nonzero;fill:#6b513c;fill-opacity:1;" d="M 11.507812 39.503906 C 11.453125 39.238281 11.398438 38.972656 11.34375 38.707031 C 11.34375 38.703125 11.34375 38.699219 11.339844 38.695312 C 11.285156 38.425781 11.234375 38.160156 11.183594 37.898438 L 10.652344 38 L 11.132812 37.894531 L 11.183594 37.886719 C 11.136719 37.648438 11.09375 37.410156 11.050781 37.179688 L 10.757812 37.230469 L 10.664062 37.246094 L 11.046875 37.171875 L 11.019531 37.019531 L 10.730469 37.074219 L 11.019531 37.019531 C 10.976562 36.785156 10.933594 36.554688 10.894531 36.324219 L 10.890625 36.308594 L 10.890625 36.296875 L 10.601562 36.347656 L 10.3125 36.40625 L 10.316406 36.421875 L 10.605469 36.371094 L 10.316406 36.421875 C 10.355469 36.65625 10.398438 36.890625 10.441406 37.125 L 10.46875 37.277344 L 10.46875 37.285156 C 10.515625 37.519531 10.558594 37.757812 10.605469 37.996094 L 11.023438 37.914062 L 10.605469 38 L 10.605469 38.007812 C 10.652344 38.253906 10.703125 38.503906 10.753906 38.753906 C 10.761719 38.796875 10.769531 38.839844 10.777344 38.878906 C 10.828125 39.125 10.878906 39.371094 10.929688 39.617188 C 10.929688 39.621094 10.929688 39.621094 10.929688 39.621094 Z M 11.507812 39.503906 "/><g clip-rule="nonzero" clip-path="url(#6a64bb9055)"><path style=" stroke:none;fill-rule:nonzero;fill:#6b513c;fill-opacity:1;" d="M 76.636719 36.855469 C 76.613281 36.671875 76.589844 36.484375 76.566406 36.300781 C 76.320312 34.472656 76.039062 32.605469 75.730469 30.773438 C 75.699219 30.597656 75.667969 30.421875 75.640625 30.242188 C 75.632812 30.210938 75.628906 30.175781 75.621094 30.144531 C 74.394531 22.976562 72.648438 15.570312 71.066406 14.296875 C 70.8125 14.089844 70.039062 13.46875 64.402344 13.8125 C 61.621094 13.980469 58.011719 14.371094 53.945312 14.9375 C 53.257812 12.644531 52.117188 9.882812 50.5 9.171875 C 50.308594 9.089844 50.066406 9.027344 49.757812 8.980469 L 49.714844 9.269531 L 49.757812 8.980469 C 45.839844 8.398438 32.296875 11.199219 30.9375 12.875 C 30.34375 13.609375 30.117188 15.316406 30.242188 18.101562 C 30.261719 18.472656 30.285156 18.863281 30.316406 19.269531 C 28.269531 19.738281 26.324219 20.210938 24.519531 20.679688 C 24.148438 19.179688 23.597656 18.308594 22.886719 18.089844 C 22.746094 18.042969 22.558594 18.023438 22.320312 18.023438 C 20.292969 18.03125 13.808594 19.871094 13.140625 20.785156 C 12.859375 21.167969 12.832031 21.90625 13.058594 23.046875 C 13.132812 23.429688 13.238281 23.84375 13.363281 24.285156 C 11.742188 25.011719 10.699219 25.675781 10.179688 26.3125 C 9.535156 27.097656 9.375 28.996094 9.695312 32.121094 L 9.699219 32.144531 L 9.992188 32.113281 L 9.699219 32.144531 C 9.71875 32.34375 9.742188 32.550781 9.765625 32.757812 L 9.777344 32.839844 L 10.070312 32.804688 L 9.777344 32.839844 C 9.800781 33.035156 9.824219 33.230469 9.851562 33.433594 L 10.140625 33.394531 L 9.851562 33.433594 L 9.859375 33.488281 L 10.148438 33.449219 L 9.859375 33.488281 C 9.886719 33.703125 9.917969 33.917969 9.949219 34.140625 L 10.238281 34.097656 L 9.949219 34.140625 L 9.960938 34.246094 C 9.992188 34.457031 10.023438 34.667969 10.058594 34.882812 L 10.0625 34.925781 C 10.097656 35.148438 10.132812 35.375 10.171875 35.605469 L 10.460938 35.554688 L 10.171875 35.605469 L 10.195312 35.738281 C 10.230469 35.957031 10.269531 36.183594 10.308594 36.40625 L 10.886719 36.304688 C 10.847656 36.082031 10.8125 35.859375 10.773438 35.640625 L 10.484375 35.6875 L 10.773438 35.640625 L 10.753906 35.507812 C 10.714844 35.28125 10.679688 35.054688 10.644531 34.832031 L 10.351562 34.878906 L 10.640625 34.828125 L 10.636719 34.796875 L 10.347656 34.839844 L 10.636719 34.792969 C 10.605469 34.582031 10.574219 34.371094 10.542969 34.164062 L 10.253906 34.207031 L 10.542969 34.164062 L 10.527344 34.058594 C 10.5 33.839844 10.46875 33.625 10.441406 33.414062 L 10.433594 33.359375 C 10.40625 33.160156 10.382812 32.964844 10.359375 32.773438 L 10.351562 32.691406 L 10.058594 32.726562 L 10.351562 32.691406 C 10.335938 32.5625 10.324219 32.441406 10.308594 32.316406 C 11.203125 32.078125 12.179688 31.828125 13.300781 31.554688 L 13.226562 31.269531 L 13.300781 31.554688 C 16.027344 30.878906 19.144531 30.160156 22.570312 29.414062 L 22.933594 29.335938 C 26.496094 28.5625 30.363281 27.765625 34.4375 26.96875 C 30.777344 30.769531 29.242188 35.824219 30.214844 40.988281 C 30.957031 44.945312 33.117188 48.46875 36.289062 50.914062 L 36.351562 50.960938 L 36.355469 50.953125 L 36.351562 50.960938 C 36.449219 51.035156 36.546875 51.105469 36.644531 51.175781 L 36.753906 51.257812 L 36.796875 51.195312 L 36.753906 51.257812 C 36.855469 51.332031 36.960938 51.402344 37.066406 51.472656 L 37.136719 51.367188 L 37.066406 51.472656 L 37.152344 51.53125 C 37.207031 51.570312 37.257812 51.601562 37.3125 51.636719 C 36.199219 51.890625 35.007812 52.148438 33.617188 52.429688 C 28.097656 53.558594 21.628906 54.667969 15.417969 54.363281 C 14.707031 52.128906 13.984375 49.644531 13.328125 47.164062 L 13.042969 47.238281 L 13.328125 47.160156 L 13.316406 47.117188 C 13.171875 46.570312 13.03125 46.027344 12.890625 45.476562 L 12.871094 45.394531 C 12.734375 44.855469 12.601562 44.316406 12.46875 43.777344 L 12.449219 43.691406 L 12.164062 43.761719 L 12.449219 43.691406 C 12.316406 43.144531 12.1875 42.601562 12.066406 42.0625 L 11.777344 42.125 L 12.066406 42.0625 L 12.054688 42.011719 C 11.992188 41.734375 11.929688 41.464844 11.867188 41.191406 L 11.703125 41.226562 L 11.867188 41.183594 L 11.5625 41.25 L 11.867188 41.183594 C 11.746094 40.636719 11.625 40.082031 11.511719 39.53125 L 11.507812 39.511719 L 11.21875 39.570312 L 10.933594 39.636719 L 11.222656 39.585938 L 10.9375 39.648438 C 10.9375 39.664062 10.941406 39.679688 10.945312 39.695312 C 11.054688 40.226562 11.175781 40.765625 11.292969 41.308594 L 11.296875 41.316406 C 11.359375 41.589844 11.417969 41.863281 11.480469 42.140625 L 11.769531 42.074219 L 11.480469 42.140625 L 11.492188 42.191406 C 11.617188 42.734375 11.746094 43.28125 11.878906 43.828125 L 11.898438 43.910156 L 12.183594 43.84375 L 11.898438 43.910156 C 12.03125 44.453125 12.164062 44.996094 12.300781 45.535156 L 12.585938 45.464844 L 12.300781 45.535156 L 12.320312 45.617188 L 12.605469 45.546875 L 12.320312 45.617188 C 12.460938 46.167969 12.601562 46.714844 12.75 47.261719 L 13.03125 47.1875 L 12.75 47.265625 L 12.761719 47.3125 C 13.441406 49.882812 14.1875 52.449219 14.917969 54.734375 C 15.179688 55.550781 15.511719 56.550781 15.875 57.582031 L 15.890625 57.628906 C 16.753906 60.078125 17.804688 62.6875 18.589844 63.488281 C 18.882812 63.785156 19.730469 64.058594 23.519531 63.675781 C 23.929688 63.636719 24.375 63.589844 24.851562 63.53125 C 31.957031 62.683594 44.328125 60.292969 55.632812 57.582031 C 63.125 55.785156 75.867188 52.472656 77.078125 50.453125 C 77.863281 49.148438 77.476562 43.253906 76.644531 36.882812 C 76.640625 36.875 76.640625 36.863281 76.636719 36.855469 Z M 31.398438 13.242188 C 32.464844 11.929688 45.078125 9.132812 49.34375 9.519531 C 49.113281 10.269531 48.660156 11.007812 48.050781 11.621094 C 46.851562 12.828125 45.171875 13.59375 43.539062 14.246094 C 41.929688 14.886719 40.269531 15.46875 38.601562 15.96875 C 35.949219 16.769531 33.300781 17.292969 30.820312 17.738281 C 30.707031 14.597656 31.128906 13.574219 31.398438 13.242188 Z M 30.84375 18.328125 C 33.367188 17.878906 36.0625 17.347656 38.769531 16.527344 C 40.453125 16.023438 42.132812 15.4375 43.753906 14.789062 C 45.449219 14.117188 47.191406 13.3125 48.464844 12.035156 C 49.164062 11.332031 49.675781 10.476562 49.925781 9.605469 C 50.0625 9.636719 50.175781 9.667969 50.261719 9.707031 C 51.371094 10.195312 52.460938 12.074219 53.355469 15.019531 C 46.160156 16.039062 38.019531 17.53125 30.894531 19.136719 C 30.875 18.859375 30.859375 18.589844 30.84375 18.328125 Z M 22.472656 18.894531 C 22.496094 18.800781 22.519531 18.707031 22.539062 18.617188 C 22.625 18.625 22.679688 18.636719 22.714844 18.644531 C 23.199219 18.792969 23.644531 19.582031 23.953125 20.824219 C 22.371094 21.242188 20.917969 21.652344 19.585938 22.054688 C 19.824219 21.933594 20.054688 21.804688 20.28125 21.667969 C 21.097656 21.175781 21.648438 20.679688 22.023438 20.113281 C 22.289062 19.714844 22.386719 19.277344 22.472656 18.894531 Z M 13.613281 21.128906 C 14.015625 20.585938 19.453125 18.816406 21.933594 18.625 C 21.925781 18.667969 21.914062 18.71875 21.902344 18.761719 C 21.820312 19.132812 21.738281 19.476562 21.535156 19.789062 C 21.210938 20.28125 20.71875 20.71875 19.980469 21.164062 C 18.140625 22.28125 15.949219 22.832031 13.800781 22.71875 L 13.738281 22.710938 C 13.691406 22.710938 13.644531 22.707031 13.59375 22.707031 C 13.390625 21.550781 13.554688 21.207031 13.613281 21.128906 Z M 16.167969 23.171875 C 15.335938 23.46875 14.582031 23.761719 13.90625 24.046875 C 13.835938 23.789062 13.769531 23.539062 13.714844 23.300781 L 13.765625 23.304688 C 14.339844 23.332031 14.917969 23.320312 15.492188 23.261719 C 15.71875 23.238281 15.945312 23.210938 16.167969 23.171875 Z M 23.109375 28.691406 L 22.792969 28.757812 C 22.789062 28.757812 22.785156 28.757812 22.78125 28.761719 C 19.214844 29.53125 15.976562 30.277344 13.15625 30.976562 L 13.226562 31.261719 L 13.15625 30.976562 C 12.074219 31.242188 11.121094 31.484375 10.25 31.714844 C 9.933594 28.339844 10.28125 27.109375 10.636719 26.679688 C 11.113281 26.09375 12.191406 25.433594 13.835938 24.714844 C 16.25 23.664062 19.796875 22.519531 24.382812 21.320312 L 24.308594 21.035156 L 24.382812 21.316406 C 26.332031 20.808594 28.457031 20.292969 30.695312 19.78125 C 37.992188 18.125 46.40625 16.585938 53.777344 15.550781 C 57.832031 14.980469 61.4375 14.589844 64.230469 14.410156 C 64.558594 15.214844 64.90625 16.148438 65.164062 17.164062 C 63.289062 17.417969 60.589844 17.882812 60.042969 18.257812 C 59.269531 18.785156 59.636719 20.9375 59.832031 21.84375 C 57.585938 22.195312 55.195312 22.589844 52.71875 23.007812 C 49.636719 21.554688 46.28125 21.214844 43.007812 22.035156 C 40.070312 22.773438 37.378906 24.214844 35.207031 26.210938 C 30.914062 27.046875 26.847656 27.882812 23.109375 28.691406 Z M 61.324219 23.957031 L 61.273438 24.246094 L 61.324219 23.957031 C 61.234375 23.941406 61.191406 23.921875 61.175781 23.914062 C 60.9375 23.554688 60.675781 22.847656 60.472656 22.015625 C 60.019531 20.148438 60.121094 18.914062 60.371094 18.746094 C 60.691406 18.527344 62.90625 18.046875 65.566406 17.707031 C 67.996094 17.394531 68.945312 17.4375 69.113281 17.507812 C 69.113281 17.507812 69.167969 17.550781 69.261719 17.734375 C 69.535156 18.285156 69.835938 19.507812 70.011719 20.777344 C 70.15625 21.816406 70.144531 22.378906 70.097656 22.535156 C 69.417969 22.972656 62.882812 24.242188 61.324219 23.957031 Z M 69.996094 23.464844 L 69.925781 23.226562 Z M 69.734375 23.539062 L 69.671875 23.308594 Z M 69.59375 23.578125 L 69.535156 23.351562 Z M 68.617188 23.8125 L 68.570312 23.601562 Z M 68.253906 23.890625 L 68.207031 23.6875 Z M 66.050781 24.289062 L 66.023438 24.117188 Z M 63.867188 24.605469 L 63.851562 24.4375 Z M 63.667969 24.457031 L 63.6875 24.625 Z M 36.636719 50.433594 C 33.582031 48.078125 31.503906 44.683594 30.789062 40.875 C 29.796875 35.59375 31.527344 30.425781 35.539062 26.699219 C 37.648438 24.742188 40.277344 23.328125 43.148438 22.605469 C 46.320312 21.8125 49.570312 22.148438 52.550781 23.578125 C 52.847656 23.71875 53.152344 23.878906 53.457031 24.054688 C 56.585938 26.476562 58.71875 29.984375 59.460938 33.929688 C 60.253906 38.148438 59.402344 42.351562 57.066406 45.765625 C 54.753906 49.140625 51.222656 51.421875 47.117188 52.195312 C 43.535156 52.871094 39.8125 52.242188 36.636719 50.433594 Z M 56.027344 25.648438 L 56.101562 25.5625 Z M 40.027344 52.46875 L 39.953125 52.636719 Z M 39.5625 52.539062 L 39.472656 52.734375 Z M 38.890625 52.109375 L 38.851562 52.1875 Z M 38.5625 51.988281 L 38.539062 52.027344 Z M 15.679688 55.175781 L 15.609375 54.953125 C 18.144531 55.066406 20.714844 54.949219 23.242188 54.695312 C 26.910156 54.324219 30.488281 53.667969 33.738281 53.003906 C 35.378906 52.667969 36.742188 52.371094 38.023438 52.070312 C 38.132812 52.136719 38.246094 52.199219 38.359375 52.261719 L 38.5 52.003906 L 38.359375 52.265625 L 38.402344 52.285156 C 38.507812 52.34375 38.609375 52.398438 38.714844 52.453125 L 38.777344 52.484375 L 38.914062 52.226562 L 38.78125 52.488281 C 38.878906 52.539062 38.976562 52.585938 39.074219 52.636719 L 39.207031 52.371094 L 39.078125 52.636719 L 39.15625 52.675781 L 39.28125 52.410156 L 39.15625 52.675781 C 39.21875 52.703125 39.277344 52.734375 39.339844 52.761719 C 35.945312 53.433594 32.636719 54.074219 29.5 54.660156 C 24.367188 55.617188 19.804688 56.417969 16.285156 56.972656 C 16.089844 56.410156 15.886719 55.808594 15.679688 55.175781 Z M 76.574219 50.152344 C 75.796875 51.453125 67.71875 54.078125 55.496094 57.011719 C 44.210938 59.71875 31.867188 62.101562 24.78125 62.949219 C 19.757812 63.546875 19.09375 63.160156 19.011719 63.074219 C 18.4375 62.492188 17.53125 60.492188 16.480469 57.535156 C 19.992188 56.980469 24.515625 56.1875 29.605469 55.238281 C 29.722656 55.214844 29.84375 55.191406 29.960938 55.167969 C 33.257812 54.550781 36.730469 53.878906 40.296875 53.167969 C 40.386719 53.203125 40.480469 53.238281 40.570312 53.273438 L 40.671875 53.308594 C 40.765625 53.34375 40.863281 53.378906 40.957031 53.410156 L 41.058594 53.445312 L 41.148438 53.164062 L 41.058594 53.445312 C 41.15625 53.476562 41.257812 53.507812 41.355469 53.539062 L 41.445312 53.566406 L 41.53125 53.285156 L 41.445312 53.566406 C 41.554688 53.597656 41.660156 53.628906 41.769531 53.660156 L 41.847656 53.378906 L 41.769531 53.660156 L 41.839844 53.679688 C 41.960938 53.714844 42.085938 53.746094 42.207031 53.777344 L 42.328125 53.300781 L 42.21875 53.78125 L 42.230469 53.785156 L 42.367188 53.214844 L 42.347656 53.210938 C 42.230469 53.179688 42.113281 53.148438 41.996094 53.117188 L 41.917969 53.398438 L 41.996094 53.117188 L 41.929688 53.097656 C 41.824219 53.066406 41.722656 53.039062 41.617188 53.007812 L 41.53125 52.980469 C 41.4375 52.949219 41.339844 52.921875 41.242188 52.886719 L 41.148438 52.855469 L 41.054688 53.132812 L 41.148438 52.855469 C 41.054688 52.824219 40.964844 52.792969 40.871094 52.757812 L 40.769531 53.035156 L 40.871094 52.757812 L 40.773438 52.722656 L 40.671875 53 L 40.773438 52.722656 C 40.683594 52.691406 40.59375 52.65625 40.503906 52.621094 L 40.429688 52.59375 C 40.425781 52.59375 40.425781 52.589844 40.417969 52.589844 L 40.40625 52.582031 L 40.40625 52.585938 L 40.40625 52.582031 C 40.378906 52.574219 40.355469 52.5625 40.332031 52.554688 C 42.136719 53.011719 44.015625 53.15625 45.882812 52.96875 C 46.332031 52.921875 46.78125 52.859375 47.226562 52.773438 C 51.484375 51.972656 55.152344 49.601562 57.550781 46.101562 C 59.976562 42.558594 60.859375 38.199219 60.035156 33.824219 C 59.546875 31.222656 58.472656 28.804688 56.917969 26.742188 C 56.980469 26.804688 57.042969 26.871094 57.105469 26.933594 L 57.1875 27.023438 C 57.253906 27.09375 57.316406 27.164062 57.382812 27.238281 L 57.601562 27.042969 L 57.382812 27.238281 L 57.472656 27.335938 L 57.691406 27.144531 L 57.472656 27.335938 C 57.535156 27.40625 57.59375 27.480469 57.65625 27.550781 L 57.742188 27.65625 C 57.804688 27.726562 57.863281 27.800781 57.925781 27.878906 L 58.003906 27.976562 L 58.234375 27.792969 L 58.003906 27.976562 C 58.070312 28.058594 58.132812 28.140625 58.195312 28.222656 L 58.257812 28.304688 C 58.339844 28.414062 58.417969 28.519531 58.496094 28.628906 L 58.503906 28.640625 C 58.585938 28.753906 58.667969 28.871094 58.746094 28.988281 L 58.78125 29.042969 L 59.023438 28.886719 L 58.785156 29.046875 C 58.847656 29.140625 58.910156 29.238281 58.976562 29.335938 L 59.042969 29.445312 L 59.292969 29.289062 L 59.042969 29.445312 C 59.09375 29.523438 59.144531 29.609375 59.195312 29.691406 L 59.269531 29.816406 L 59.773438 29.511719 L 59.699219 29.386719 L 59.449219 29.535156 L 59.699219 29.386719 C 59.648438 29.300781 59.59375 29.214844 59.542969 29.132812 L 59.472656 29.019531 L 59.222656 29.175781 L 59.472656 29.019531 C 59.40625 28.917969 59.339844 28.816406 59.273438 28.71875 L 59.234375 28.660156 L 58.992188 28.824219 L 59.234375 28.660156 C 59.152344 28.539062 59.070312 28.417969 58.984375 28.296875 L 58.746094 28.46875 L 58.503906 28.632812 L 58.980469 28.292969 L 58.738281 28.460938 L 58.980469 28.289062 C 58.898438 28.175781 58.816406 28.0625 58.734375 27.953125 L 58.496094 28.128906 L 58.730469 27.949219 L 58.667969 27.867188 L 58.433594 28.046875 L 58.667969 27.867188 C 58.601562 27.78125 58.535156 27.695312 58.46875 27.613281 L 58.386719 27.511719 L 58.160156 27.695312 L 58.386719 27.507812 C 58.324219 27.429688 58.261719 27.355469 58.199219 27.277344 L 57.972656 27.464844 L 58.195312 27.277344 L 58.105469 27.171875 L 57.882812 27.363281 L 58.105469 27.171875 C 58.042969 27.097656 57.980469 27.023438 57.914062 26.949219 L 57.824219 26.847656 C 57.757812 26.773438 57.6875 26.695312 57.621094 26.625 L 57.402344 26.824219 L 57.621094 26.625 L 57.535156 26.53125 L 57.320312 26.734375 L 57.535156 26.53125 C 57.460938 26.453125 57.382812 26.371094 57.304688 26.292969 L 57.09375 26.496094 L 57.304688 26.292969 L 57.242188 26.226562 L 57.03125 26.433594 L 57.242188 26.226562 C 56.9375 25.917969 56.617188 25.621094 56.292969 25.339844 L 56.230469 25.289062 L 56.039062 25.511719 L 56.230469 25.289062 C 56.144531 25.214844 56.058594 25.140625 55.96875 25.070312 L 55.785156 25.296875 L 55.96875 25.070312 L 55.886719 25 L 55.699219 25.230469 L 55.886719 25 C 55.804688 24.933594 55.71875 24.867188 55.636719 24.804688 L 55.542969 24.734375 L 55.371094 24.960938 L 55.542969 24.734375 C 55.460938 24.671875 55.375 24.609375 55.292969 24.546875 L 55.148438 24.742188 C 55.148438 24.742188 55.144531 24.738281 55.144531 24.738281 L 55.28125 24.539062 L 55.199219 24.476562 L 55.066406 24.664062 L 55.199219 24.476562 C 55.113281 24.414062 55.023438 24.351562 54.9375 24.292969 L 54.851562 24.234375 L 54.753906 24.378906 L 54.851562 24.234375 C 54.753906 24.167969 54.652344 24.101562 54.554688 24.035156 L 54.484375 24.140625 L 54.550781 24.035156 L 54.5 24 C 54.371094 23.917969 54.238281 23.835938 54.109375 23.753906 L 54.082031 23.800781 L 54.109375 23.753906 L 54.003906 23.695312 L 53.953125 23.664062 C 53.886719 23.625 53.824219 23.589844 53.761719 23.550781 L 53.757812 23.554688 C 53.703125 23.523438 53.648438 23.492188 53.59375 23.464844 C 55.808594 23.089844 57.949219 22.738281 59.976562 22.421875 C 60.1875 23.226562 60.449219 23.894531 60.707031 24.269531 C 60.78125 24.378906 60.902344 24.457031 61.078125 24.503906 C 61.082031 24.507812 61.082031 24.511719 61.082031 24.515625 L 61.09375 24.511719 C 61.097656 24.511719 61.105469 24.511719 61.109375 24.515625 L 61.089844 24.527344 L 61.109375 24.558594 L 61.160156 24.527344 L 61.109375 24.558594 C 61.132812 24.597656 61.160156 24.636719 61.183594 24.675781 C 61.253906 24.777344 61.359375 24.851562 61.515625 24.902344 C 61.597656 24.925781 61.691406 24.949219 61.808594 24.960938 C 61.941406 24.980469 62.101562 24.992188 62.285156 24.992188 L 62.289062 24.699219 L 62.285156 24.992188 C 62.457031 24.996094 62.652344 24.992188 62.867188 24.980469 C 62.917969 24.980469 62.972656 24.976562 63.027344 24.972656 L 63.007812 24.679688 L 63.027344 24.972656 C 63.136719 24.96875 63.246094 24.957031 63.363281 24.949219 C 63.480469 24.941406 63.597656 24.929688 63.71875 24.917969 C 63.753906 24.914062 63.792969 24.910156 63.828125 24.910156 C 63.855469 24.90625 63.878906 24.902344 63.902344 24.902344 C 64.027344 24.886719 64.15625 24.875 64.28125 24.859375 C 64.539062 24.828125 64.804688 24.792969 65.078125 24.753906 L 65.289062 24.726562 C 65.421875 24.707031 65.558594 24.683594 65.691406 24.664062 L 65.644531 24.375 L 65.691406 24.664062 C 65.734375 24.65625 65.777344 24.648438 65.824219 24.644531 C 65.773438 25.539062 65.679688 26.429688 65.539062 27.300781 C 65.015625 30.578125 63.824219 33.808594 62.082031 36.714844 C 62.035156 36.152344 61.957031 35.589844 61.855469 35.03125 L 61.566406 35.085938 L 61.851562 35.03125 C 61.824219 34.886719 61.796875 34.738281 61.761719 34.59375 L 61.476562 34.65625 L 61.761719 34.59375 L 61.730469 34.449219 C 61.710938 34.351562 61.6875 34.253906 61.664062 34.15625 L 61.378906 34.226562 L 61.664062 34.15625 C 61.652344 34.117188 61.644531 34.078125 61.632812 34.039062 L 61.621094 33.988281 C 61.601562 33.902344 61.578125 33.8125 61.554688 33.726562 L 61.269531 33.800781 L 61.554688 33.726562 C 61.539062 33.667969 61.519531 33.609375 61.503906 33.550781 L 61.222656 33.628906 L 61.503906 33.550781 C 61.480469 33.464844 61.457031 33.378906 61.433594 33.296875 L 61.148438 33.378906 L 61.429688 33.296875 C 61.414062 33.238281 61.394531 33.179688 61.378906 33.121094 C 61.351562 33.035156 61.324219 32.953125 61.296875 32.867188 L 61.015625 32.957031 L 61.296875 32.867188 L 61.289062 32.84375 C 61.273438 32.792969 61.257812 32.746094 61.242188 32.699219 C 61.210938 32.609375 61.179688 32.523438 61.148438 32.4375 L 60.875 32.535156 L 61.148438 32.4375 L 61.132812 32.386719 C 61.121094 32.351562 61.105469 32.316406 61.09375 32.285156 C 61.058594 32.183594 61.023438 32.089844 60.984375 31.988281 L 60.710938 32.097656 L 60.984375 31.988281 L 60.941406 31.875 L 60.667969 31.984375 L 60.941406 31.875 C 60.886719 31.738281 60.828125 31.601562 60.773438 31.46875 L 60.761719 31.445312 L 60.488281 31.554688 L 60.222656 31.683594 L 60.230469 31.699219 L 60.5 31.582031 L 60.230469 31.699219 C 60.285156 31.828125 60.339844 31.960938 60.390625 32.089844 L 60.433594 32.203125 C 60.472656 32.296875 60.507812 32.390625 60.542969 32.484375 L 60.816406 32.382812 L 60.542969 32.488281 C 60.554688 32.519531 60.566406 32.550781 60.578125 32.582031 L 60.597656 32.632812 C 60.625 32.71875 60.65625 32.800781 60.683594 32.886719 L 60.960938 32.792969 L 60.683594 32.886719 C 60.699219 32.933594 60.714844 32.980469 60.730469 33.027344 L 60.738281 33.050781 C 60.761719 33.128906 60.789062 33.210938 60.816406 33.296875 L 61.09375 33.207031 L 60.816406 33.296875 C 60.832031 33.351562 60.847656 33.40625 60.867188 33.464844 C 60.890625 33.546875 60.914062 33.628906 60.9375 33.710938 C 60.953125 33.765625 60.96875 33.820312 60.984375 33.878906 C 61.007812 33.964844 61.03125 34.046875 61.050781 34.132812 L 61.335938 34.0625 L 61.050781 34.132812 L 61.09375 34.296875 C 61.117188 34.390625 61.136719 34.484375 61.160156 34.578125 L 61.1875 34.714844 C 61.21875 34.859375 61.25 35 61.273438 35.140625 C 61.433594 35.972656 61.527344 36.820312 61.554688 37.65625 L 61.847656 37.644531 L 61.554688 37.65625 C 61.628906 39.734375 61.304688 41.757812 60.59375 43.667969 C 60.507812 43.902344 60.414062 44.136719 60.316406 44.363281 C 59.550781 46.144531 58.472656 47.742188 57.101562 49.117188 L 57.054688 49.164062 C 57.027344 49.191406 57 49.21875 56.972656 49.246094 C 56.082031 50.117188 55.082031 50.878906 54.003906 51.515625 C 53.894531 51.578125 53.785156 51.640625 53.675781 51.703125 C 53.34375 51.886719 53 52.058594 52.652344 52.21875 C 52.304688 52.378906 51.949219 52.527344 51.589844 52.664062 C 50.734375 52.984375 49.839844 53.230469 48.929688 53.402344 L 48.984375 53.6875 L 48.984375 53.695312 L 48.929688 53.402344 C 48.792969 53.429688 48.660156 53.453125 48.523438 53.472656 L 48.390625 53.496094 C 48.296875 53.507812 48.207031 53.523438 48.117188 53.535156 L 47.957031 53.554688 L 47.9375 53.554688 C 47.859375 53.566406 47.785156 53.574219 47.707031 53.582031 L 47.738281 53.875 L 47.707031 53.582031 C 47.667969 53.585938 47.628906 53.589844 47.589844 53.59375 L 47.539062 53.597656 L 47.566406 53.890625 L 47.539062 53.597656 C 47.460938 53.605469 47.378906 53.613281 47.300781 53.621094 C 47.257812 53.625 47.210938 53.628906 47.164062 53.632812 L 47.128906 53.632812 C 47.050781 53.640625 46.972656 53.644531 46.894531 53.648438 C 46.835938 53.652344 46.777344 53.65625 46.71875 53.65625 L 46.730469 53.949219 L 46.71875 53.65625 C 46.640625 53.660156 46.566406 53.664062 46.488281 53.664062 C 46.429688 53.667969 46.371094 53.667969 46.3125 53.667969 L 46.316406 53.960938 L 46.3125 53.667969 C 46.238281 53.667969 46.160156 53.667969 46.082031 53.667969 L 46.082031 53.964844 L 46.082031 53.667969 C 46.023438 53.667969 45.96875 53.667969 45.910156 53.667969 C 45.832031 53.667969 45.757812 53.667969 45.679688 53.664062 C 45.621094 53.664062 45.566406 53.660156 45.511719 53.660156 C 45.433594 53.65625 45.351562 53.652344 45.273438 53.648438 C 45.21875 53.644531 45.167969 53.644531 45.113281 53.640625 C 45.03125 53.636719 44.953125 53.628906 44.871094 53.621094 L 44.71875 53.609375 L 44.691406 53.902344 L 44.714844 53.609375 C 44.632812 53.601562 44.550781 53.59375 44.464844 53.585938 L 44.324219 53.570312 L 44.289062 53.863281 L 44.324219 53.570312 C 44.234375 53.558594 44.144531 53.546875 44.054688 53.535156 L 43.933594 53.519531 C 43.832031 53.503906 43.730469 53.492188 43.628906 53.472656 L 43.582031 53.761719 L 43.628906 53.472656 L 43.542969 53.460938 L 43.496094 53.75 L 43.542969 53.460938 C 43.152344 53.394531 42.757812 53.3125 42.371094 53.214844 L 42.226562 53.785156 C 42.628906 53.886719 43.039062 53.96875 43.445312 54.039062 L 43.535156 54.054688 C 43.640625 54.070312 43.746094 54.085938 43.847656 54.101562 L 43.890625 53.808594 L 43.847656 54.101562 L 43.976562 54.117188 C 44.066406 54.128906 44.160156 54.140625 44.253906 54.152344 L 44.402344 54.167969 L 44.433594 53.875 L 44.402344 54.167969 C 44.488281 54.175781 44.574219 54.1875 44.664062 54.195312 L 44.824219 54.207031 L 44.847656 53.917969 L 44.824219 54.207031 C 44.90625 54.214844 44.988281 54.222656 45.074219 54.226562 L 45.09375 53.933594 L 45.074219 54.226562 C 45.132812 54.230469 45.1875 54.230469 45.242188 54.234375 L 45.257812 53.941406 L 45.242188 54.234375 C 45.324219 54.238281 45.40625 54.242188 45.484375 54.246094 L 45.496094 53.953125 L 45.484375 54.246094 C 45.546875 54.246094 45.601562 54.25 45.660156 54.25 C 45.742188 54.253906 45.820312 54.253906 45.902344 54.253906 C 45.960938 54.253906 46.019531 54.257812 46.078125 54.257812 C 46.160156 54.257812 46.238281 54.253906 46.320312 54.253906 C 46.378906 54.253906 46.4375 54.253906 46.5 54.253906 L 46.492188 53.957031 L 46.5 54.253906 C 46.582031 54.25 46.660156 54.246094 46.738281 54.242188 C 46.800781 54.242188 46.859375 54.238281 46.921875 54.234375 L 46.90625 53.941406 L 46.921875 54.234375 C 47 54.230469 47.082031 54.226562 47.164062 54.21875 L 47.199219 54.21875 C 47.246094 54.214844 47.296875 54.210938 47.34375 54.207031 C 47.425781 54.199219 47.507812 54.191406 47.589844 54.183594 L 47.636719 54.179688 C 47.667969 54.175781 47.699219 54.175781 47.730469 54.171875 C 47.742188 54.171875 47.753906 54.167969 47.765625 54.167969 C 47.84375 54.160156 47.921875 54.152344 48 54.140625 L 48.023438 54.136719 L 47.988281 53.847656 L 48.023438 54.136719 L 48.1875 54.117188 L 48.148438 53.828125 L 48.191406 54.117188 C 48.285156 54.105469 48.378906 54.089844 48.476562 54.078125 L 48.429688 53.785156 L 48.476562 54.078125 L 48.613281 54.054688 C 48.75 54.035156 48.886719 54.011719 49.023438 53.984375 L 49.027344 53.984375 L 49.039062 53.980469 C 49.980469 53.804688 50.90625 53.546875 51.789062 53.214844 C 52.164062 53.078125 52.535156 52.921875 52.898438 52.753906 C 53.257812 52.589844 53.613281 52.410156 53.957031 52.21875 C 54.070312 52.15625 54.1875 52.089844 54.300781 52.023438 C 55.417969 51.367188 56.457031 50.574219 57.382812 49.667969 C 57.40625 49.644531 57.429688 49.621094 57.453125 49.597656 C 66.113281 47.703125 72.800781 46.089844 76.839844 44.921875 C 76.992188 47.675781 76.914062 49.585938 76.574219 50.152344 Z M 76.804688 44.316406 C 72.917969 45.445312 66.496094 47.003906 58.164062 48.835938 C 59.28125 47.570312 60.183594 46.152344 60.851562 44.59375 C 60.953125 44.359375 61.050781 44.113281 61.140625 43.871094 C 61.867188 41.917969 62.203125 39.851562 62.140625 37.726562 C 64.160156 34.582031 65.535156 31.011719 66.113281 27.394531 C 66.265625 26.460938 66.363281 25.503906 66.410156 24.546875 C 66.445312 24.539062 66.480469 24.535156 66.515625 24.527344 C 66.722656 24.492188 66.929688 24.453125 67.132812 24.417969 C 67.40625 24.367188 67.671875 24.316406 67.933594 24.261719 C 68.0625 24.234375 68.191406 24.210938 68.316406 24.183594 C 68.441406 24.15625 68.5625 24.128906 68.683594 24.101562 C 68.800781 24.074219 68.917969 24.046875 69.03125 24.019531 L 68.914062 23.519531 L 69.03125 24.019531 C 69.144531 23.996094 69.253906 23.96875 69.363281 23.941406 C 69.46875 23.914062 69.570312 23.890625 69.667969 23.863281 L 69.8125 23.824219 C 69.90625 23.796875 69.996094 23.773438 70.078125 23.75 C 70.164062 23.722656 70.246094 23.699219 70.320312 23.671875 C 70.394531 23.648438 70.464844 23.625 70.527344 23.601562 L 70.425781 23.324219 L 70.527344 23.601562 C 70.757812 23.515625 70.898438 23.445312 70.984375 23.367188 C 71.023438 23.332031 71.054688 23.292969 71.082031 23.242188 C 71.082031 23.242188 71.082031 23.238281 71.085938 23.238281 L 71.101562 23.199219 C 71.105469 23.191406 71.105469 23.1875 71.109375 23.183594 C 71.109375 23.183594 71.113281 23.183594 71.113281 23.183594 C 71.152344 23.160156 71.171875 22.917969 71.171875 22.917969 L 71.171875 22.914062 C 71.171875 22.898438 71.175781 22.886719 71.175781 22.871094 C 71.179688 22.847656 71.179688 22.828125 71.183594 22.804688 L 71.171875 22.800781 L 71.183594 22.804688 C 71.183594 22.78125 71.1875 22.757812 71.1875 22.734375 C 71.1875 22.707031 71.1875 22.679688 71.191406 22.652344 C 71.191406 22.628906 71.191406 22.605469 71.191406 22.578125 C 71.191406 22.550781 71.191406 22.523438 71.191406 22.492188 L 71.167969 22.492188 L 71.191406 22.492188 L 71.191406 22.417969 L 71.167969 22.417969 L 71.191406 22.417969 C 71.1875 22.382812 71.1875 22.351562 71.1875 22.316406 L 71.183594 22.25 L 71.167969 22.25 L 71.183594 22.246094 C 71.183594 22.207031 71.179688 22.167969 71.179688 22.125 L 71.167969 22.128906 L 71.167969 22.125 L 71.179688 22.125 L 71.175781 22.078125 L 71.167969 22.078125 L 71.175781 22.078125 C 71.171875 22.027344 71.167969 21.980469 71.164062 21.929688 L 71.164062 21.917969 L 71.160156 21.917969 L 71.164062 21.917969 L 71.160156 21.917969 L 71.160156 21.914062 L 71.164062 21.914062 C 71.152344 21.816406 71.144531 21.714844 71.132812 21.613281 L 70.839844 21.640625 L 71.132812 21.609375 L 71.113281 21.429688 L 71.097656 21.292969 L 70.804688 21.332031 L 71.097656 21.292969 C 71.085938 21.222656 71.078125 21.148438 71.066406 21.078125 L 71.050781 20.964844 C 71.046875 20.933594 71.039062 20.902344 71.035156 20.871094 C 71.410156 20.828125 71.773438 20.789062 72.117188 20.75 L 72.054688 20.167969 C 71.699219 20.203125 71.324219 20.246094 70.941406 20.289062 C 70.742188 19.195312 70.367188 17.613281 69.828125 17.386719 C 69.796875 17.371094 69.757812 17.359375 69.714844 17.347656 C 69.601562 17.15625 69.480469 17.035156 69.351562 16.976562 C 68.863281 16.773438 67.179688 16.921875 65.75 17.097656 C 65.496094 16.101562 65.167969 15.183594 64.847656 14.378906 C 69.21875 14.136719 70.390625 14.507812 70.699219 14.757812 C 71.328125 15.265625 72.09375 17.175781 72.886719 20.082031 C 72.765625 20.09375 72.648438 20.105469 72.527344 20.117188 L 72.453125 20.125 L 72.109375 20.160156 L 72.140625 20.453125 L 72.109375 20.160156 L 72.054688 20.164062 L 72.117188 20.75 L 72.171875 20.742188 L 72.511719 20.707031 L 72.480469 20.414062 L 72.511719 20.707031 L 72.585938 20.699219 L 72.558594 20.410156 L 72.585938 20.699219 C 72.738281 20.6875 72.890625 20.671875 73.039062 20.65625 C 73.773438 23.464844 74.507812 27.058594 75.140625 30.808594 C 75.222656 31.308594 75.304688 31.808594 75.386719 32.324219 C 76.109375 36.875 76.597656 41.101562 76.804688 44.316406 Z M 70.648438 21.128906 L 70.773438 21.113281 Z M 70.820312 21.457031 L 70.683594 21.472656 Z M 70.636719 21.019531 L 70.761719 21 Z M 70.636719 21.019531 "/></g><path style=" stroke:none;fill-rule:nonzero;fill:#6b513c;fill-opacity:1;" d="M 60.585938 31.070312 C 60.585938 31.066406 60.585938 31.066406 60.585938 31.070312 L 60.53125 30.945312 L 60.265625 31.070312 L 60.53125 30.945312 C 60.488281 30.855469 60.445312 30.765625 60.402344 30.675781 L 60.332031 30.53125 L 60.066406 30.664062 L 60.332031 30.53125 C 60.289062 30.449219 60.246094 30.367188 60.203125 30.285156 L 60.128906 30.140625 L 59.867188 30.277344 L 60.128906 30.140625 C 60.085938 30.058594 60.039062 29.980469 59.996094 29.898438 L 59.917969 29.757812 L 59.660156 29.902344 L 59.917969 29.757812 C 59.871094 29.679688 59.824219 29.597656 59.777344 29.515625 L 59.269531 29.816406 C 59.316406 29.894531 59.363281 29.972656 59.40625 30.050781 L 59.484375 30.1875 L 59.738281 30.042969 L 59.484375 30.1875 C 59.527344 30.261719 59.566406 30.339844 59.609375 30.417969 L 59.683594 30.558594 C 59.726562 30.636719 59.765625 30.71875 59.804688 30.796875 L 59.875 30.933594 L 60.140625 30.804688 L 59.875 30.933594 C 59.917969 31.019531 59.957031 31.109375 60 31.195312 L 60.054688 31.3125 L 60.320312 31.191406 L 60.054688 31.316406 C 60.109375 31.433594 60.160156 31.550781 60.210938 31.671875 L 60.75 31.441406 C 60.699219 31.3125 60.644531 31.191406 60.585938 31.070312 Z M 60.585938 31.070312 "/><path style=" stroke:none;fill-rule:nonzero;fill:#6b513c;fill-opacity:1;" d="M 48.132812 49.179688 C 51.113281 48.621094 53.679688 46.960938 55.359375 44.507812 C 57.058594 42.03125 57.679688 38.980469 57.101562 35.917969 C 56.472656 32.578125 54.476562 29.691406 51.625 27.996094 C 49.261719 26.585938 46.523438 26.171875 43.910156 26.828125 C 37.679688 28.386719 33.832031 34.089844 34.960938 40.085938 C 35.449219 42.675781 36.820312 45.03125 38.824219 46.71875 C 41.171875 48.699219 44.171875 49.621094 47.179688 49.320312 C 47.5 49.285156 47.816406 49.242188 48.132812 49.179688 Z M 39.199219 46.269531 L 39.011719 46.492188 L 39.199219 46.269531 C 37.300781 44.667969 36 42.433594 35.535156 39.976562 C 34.464844 34.289062 38.128906 28.882812 44.050781 27.398438 C 46.511719 26.78125 49.097656 27.171875 51.324219 28.5 L 51.476562 28.246094 L 51.324219 28.5 C 54.03125 30.109375 55.925781 32.851562 56.523438 36.027344 C 57.070312 38.933594 56.484375 41.828125 54.875 44.175781 C 53.28125 46.5 50.847656 48.070312 48.023438 48.601562 C 44.878906 49.195312 41.664062 48.34375 39.199219 46.269531 Z M 39.199219 46.269531 "/><path style=" stroke:none;fill-rule:nonzero;fill:#6b513c;fill-opacity:1;" d="M 51.378906 41.71875 C 52.355469 40.296875 52.707031 38.550781 52.378906 36.792969 C 52.015625 34.878906 50.871094 33.222656 49.238281 32.25 C 47.882812 31.441406 46.3125 31.207031 44.8125 31.582031 C 41.242188 32.476562 39.035156 35.746094 39.683594 39.183594 C 39.960938 40.667969 40.75 42.019531 41.898438 42.984375 C 43.246094 44.121094 44.964844 44.652344 46.6875 44.476562 C 46.871094 44.457031 47.054688 44.433594 47.238281 44.398438 C 48.945312 44.078125 50.417969 43.125 51.378906 41.71875 Z M 42.113281 42.726562 L 42.003906 42.855469 L 42.113281 42.726562 C 41.023438 41.8125 40.277344 40.527344 40.011719 39.121094 C 39.398438 35.859375 41.496094 32.757812 44.894531 31.90625 C 46.304688 31.550781 47.789062 31.777344 49.066406 32.539062 L 49.152344 32.390625 L 49.066406 32.539062 C 50.617188 33.460938 51.703125 35.03125 52.046875 36.851562 C 52.359375 38.519531 52.023438 40.179688 51.101562 41.527344 C 50.1875 42.859375 48.792969 43.761719 47.171875 44.066406 C 45.371094 44.40625 43.527344 43.917969 42.113281 42.726562 Z M 42.113281 42.726562 "/><path style=" stroke:none;fill-rule:nonzero;fill:#6b513c;fill-opacity:1;" d="M 68.835938 17.949219 L 68.648438 17.941406 C 68.429688 17.9375 68.113281 17.949219 67.71875 17.972656 L 67.738281 18.265625 L 67.71875 17.972656 C 66.890625 18.03125 65.761719 18.160156 64.628906 18.324219 C 63.988281 18.417969 63.339844 18.527344 62.707031 18.644531 C 61.65625 18.84375 61.125 18.984375 60.859375 19.070312 L 60.6875 19.125 L 60.660156 19.304688 C 60.5625 19.921875 60.757812 21.34375 61.09375 22.480469 C 61.191406 22.816406 61.296875 23.105469 61.40625 23.339844 L 61.484375 23.5 L 61.65625 23.507812 C 61.964844 23.523438 62.496094 23.503906 63.246094 23.429688 C 63.832031 23.371094 64.554688 23.277344 65.402344 23.136719 C 65.765625 23.078125 66.152344 23.007812 66.558594 22.929688 C 68.246094 22.613281 69.132812 22.359375 69.4375 22.265625 L 69.648438 22.199219 L 69.640625 21.976562 C 69.613281 21.011719 69.242188 18.933594 68.910156 18.125 Z M 68.835938 17.949219 "/><path style=" stroke:none;fill-rule:nonzero;fill:#6b513c;fill-opacity:1;" d="M 60.039062 11.878906 C 60.066406 11.878906 60.09375 11.878906 60.117188 11.875 C 60.265625 11.863281 60.363281 11.792969 60.421875 11.738281 C 60.5625 11.597656 60.617188 11.394531 60.582031 11.136719 C 60.417969 9.878906 57.992188 6.792969 57.304688 6.402344 L 57.253906 6.371094 L 57.195312 6.363281 C 56.71875 6.308594 56.230469 6.460938 55.910156 6.761719 C 55.667969 6.992188 55.546875 7.292969 55.566406 7.613281 C 55.59375 8.121094 55.96875 8.515625 56.210938 8.773438 C 58.144531 10.824219 59.433594 11.867188 60.039062 11.878906 Z M 56.3125 7.1875 C 56.453125 7.054688 56.664062 6.96875 56.886719 6.945312 C 56.945312 6.941406 57.003906 6.9375 57.0625 6.941406 C 57.839844 7.464844 60.101562 10.65625 60.011719 11.289062 C 59.726562 11.234375 58.730469 10.585938 56.636719 8.371094 C 56.382812 8.097656 56.167969 7.851562 56.152344 7.578125 C 56.140625 7.429688 56.195312 7.300781 56.3125 7.1875 Z M 56.3125 7.1875 "/><g clip-rule="nonzero" clip-path="url(#9722453798)"><path style=" stroke:none;fill-rule:nonzero;fill:#6b513c;fill-opacity:1;" d="M 64.402344 9.847656 C 64.53125 9.9375 64.652344 9.957031 64.746094 9.945312 C 64.765625 9.945312 64.785156 9.9375 64.804688 9.9375 C 64.992188 9.894531 65.148438 9.753906 65.269531 9.515625 C 65.878906 8.332031 65.785156 4.042969 65.46875 3.296875 L 65.445312 3.238281 L 65.398438 3.199219 C 65.0625 2.882812 64.585938 2.726562 64.164062 2.789062 C 63.804688 2.84375 63.503906 3.042969 63.320312 3.359375 C 63.066406 3.789062 63.09375 4.269531 63.152344 4.765625 C 63.488281 7.785156 63.910156 9.496094 64.402344 9.847656 Z M 63.828125 3.652344 C 63.921875 3.492188 64.0625 3.398438 64.25 3.371094 C 64.257812 3.371094 64.269531 3.367188 64.277344 3.367188 C 64.503906 3.34375 64.753906 3.425781 64.949219 3.582031 C 65.066406 3.964844 65.164062 5.238281 65.125 6.609375 C 65.078125 8.496094 64.824219 9.179688 64.703125 9.332031 C 64.503906 9.089844 64.089844 7.894531 63.734375 4.699219 C 63.691406 4.289062 63.667969 3.929688 63.828125 3.652344 Z M 63.828125 3.652344 "/></g><path style=" stroke:none;fill-rule:nonzero;fill:#6b513c;fill-opacity:1;" d="M 73.972656 6.570312 C 73.914062 6.113281 73.652344 5.691406 73.285156 5.464844 C 72.972656 5.273438 72.613281 5.238281 72.273438 5.363281 C 71.804688 5.53125 71.519531 5.917969 71.242188 6.335938 C 69.566406 8.867188 68.792969 10.453125 68.945312 11.039062 C 68.996094 11.222656 69.109375 11.320312 69.199219 11.363281 C 69.296875 11.414062 69.40625 11.429688 69.527344 11.417969 C 69.621094 11.410156 69.71875 11.382812 69.824219 11.339844 C 71.050781 10.820312 73.726562 7.464844 73.960938 6.691406 L 73.980469 6.628906 Z M 71.578125 9.015625 C 70.332031 10.429688 69.699219 10.796875 69.507812 10.835938 C 69.507812 10.519531 69.957031 9.339844 71.734375 6.65625 C 71.960938 6.3125 72.175781 6.019531 72.472656 5.914062 C 72.523438 5.894531 72.570312 5.882812 72.621094 5.878906 C 72.742188 5.867188 72.863281 5.894531 72.976562 5.964844 C 73.175781 6.085938 73.328125 6.320312 73.378906 6.574219 C 73.222656 6.945312 72.480469 7.984375 71.578125 9.015625 Z M 71.578125 9.015625 "/></g></svg>