<svg xmlns="http://www.w3.org/2000/svg" xmlns:xlink="http://www.w3.org/1999/xlink" width="117" zoomAndPan="magnify" viewBox="0 0 87.75 67.499998" height="90" preserveAspectRatio="xMidYMid meet" version="1.2"><defs><clipPath id="15c14d6889"><path d="M 0.199219 12.707031 L 87.304688 12.707031 L 87.304688 54.398438 L 0.199219 54.398438 Z M 0.199219 12.707031 "/></clipPath></defs><g id="386e613483"><g clip-rule="nonzero" clip-path="url(#15c14d6889)"><path style=" stroke:none;fill-rule:evenodd;fill:#6b513c;fill-opacity:1;" d="M 67.839844 12.726562 C 67.128906 12.996094 66.460938 13.871094 66.03125 15.101562 C 65.984375 15.230469 65.929688 15.363281 65.914062 15.398438 C 65.894531 15.433594 65.84375 15.589844 65.796875 15.746094 C 65.753906 15.90625 65.703125 16.070312 65.683594 16.109375 C 65.664062 16.152344 65.609375 16.355469 65.5625 16.558594 C 65.515625 16.761719 65.457031 16.988281 65.4375 17.0625 C 65.417969 17.136719 65.367188 17.410156 65.324219 17.671875 C 65.28125 17.933594 65.234375 18.171875 65.222656 18.199219 C 65.191406 18.277344 65.078125 19.175781 65.039062 19.667969 C 65.03125 19.777344 65.011719 19.886719 65 19.914062 C 64.980469 19.96875 64.925781 20.683594 64.871094 21.644531 C 64.828125 22.410156 64.828125 25.730469 64.871094 26.449219 C 64.917969 27.222656 64.976562 27.921875 65 27.976562 C 65.011719 28.003906 65.039062 28.203125 65.0625 28.414062 C 65.117188 28.921875 65.195312 29.484375 65.222656 29.546875 C 65.238281 29.574219 65.265625 29.703125 65.289062 29.832031 C 65.355469 30.234375 65.425781 30.558594 65.460938 30.675781 C 65.484375 30.738281 65.539062 30.953125 65.585938 31.15625 C 65.632812 31.359375 65.683594 31.542969 65.699219 31.566406 C 65.710938 31.589844 65.761719 31.765625 65.8125 31.957031 C 65.859375 32.152344 65.910156 32.3125 65.917969 32.320312 C 65.929688 32.328125 65.980469 32.488281 66.03125 32.679688 C 66.085938 32.871094 66.144531 33.058594 66.164062 33.089844 C 66.179688 33.125 66.234375 33.300781 66.285156 33.476562 C 66.335938 33.65625 66.382812 33.804688 66.394531 33.8125 C 66.429688 33.839844 66.570312 34.4375 66.554688 34.492188 C 66.546875 34.523438 66.488281 34.652344 66.425781 34.785156 C 65.917969 35.859375 65.859375 35.96875 65.460938 36.574219 C 65.25 36.894531 64.9375 37.316406 64.679688 37.640625 C 64.273438 38.136719 63.417969 39.0625 62.808594 39.65625 L 62.496094 39.960938 L 62.515625 39.832031 C 62.53125 39.757812 62.566406 39.496094 62.601562 39.25 C 62.632812 39.003906 62.671875 38.734375 62.683594 38.652344 C 62.71875 38.453125 62.800781 37.492188 62.835938 36.9375 C 62.851562 36.6875 62.878906 36.273438 62.898438 36.015625 C 62.949219 35.359375 62.949219 33.554688 62.898438 32.96875 C 62.878906 32.726562 62.84375 32.3125 62.824219 32.046875 C 62.777344 31.464844 62.695312 30.789062 62.664062 30.703125 C 62.652344 30.667969 62.617188 30.492188 62.589844 30.3125 C 62.503906 29.804688 62.335938 29.0625 62.191406 28.585938 C 62.074219 28.195312 61.761719 27.257812 61.742188 27.230469 C 61.730469 27.21875 61.679688 27.089844 61.628906 26.945312 C 61.578125 26.800781 61.527344 26.671875 61.515625 26.65625 C 61.503906 26.640625 61.464844 26.554688 61.429688 26.460938 C 61.289062 26.085938 60.523438 24.546875 60.332031 24.253906 C 60.300781 24.199219 60.273438 24.152344 60.273438 24.148438 C 60.273438 24.136719 60.09375 23.835938 59.84375 23.425781 C 59.753906 23.277344 59.519531 22.921875 59.292969 22.59375 C 59.222656 22.492188 59.136719 22.371094 59.105469 22.320312 C 59.070312 22.269531 59.003906 22.175781 58.953125 22.113281 C 58.90625 22.050781 58.851562 21.972656 58.832031 21.941406 C 58.75 21.824219 58.257812 21.207031 57.910156 20.789062 C 57.171875 19.902344 56.070312 18.8125 55.195312 18.105469 C 55.078125 18.011719 54.964844 17.917969 54.941406 17.898438 C 54.859375 17.832031 54.191406 17.332031 54.027344 17.214844 C 53.714844 16.988281 52.929688 16.472656 52.722656 16.355469 C 52.652344 16.320312 52.582031 16.273438 52.558594 16.257812 C 52.539062 16.242188 52.460938 16.195312 52.386719 16.152344 C 52.308594 16.109375 52.113281 16 51.949219 15.910156 C 51.625 15.726562 50.804688 15.320312 50.542969 15.214844 C 50.453125 15.179688 50.355469 15.132812 50.320312 15.113281 C 50.285156 15.097656 50.140625 15.039062 49.996094 14.988281 C 49.851562 14.9375 49.707031 14.882812 49.671875 14.863281 C 49.640625 14.847656 49.488281 14.796875 49.335938 14.75 C 49.1875 14.707031 49.050781 14.664062 49.039062 14.652344 C 49.023438 14.644531 48.847656 14.59375 48.640625 14.542969 C 48.433594 14.492188 48.214844 14.433594 48.15625 14.414062 C 48.019531 14.371094 47.617188 14.296875 47.246094 14.242188 C 47.097656 14.222656 46.941406 14.195312 46.898438 14.179688 C 46.269531 13.984375 42.386719 13.914062 40.652344 14.070312 C 40.042969 14.125 39.015625 14.285156 38.625 14.386719 C 38.550781 14.410156 38.300781 14.46875 38.070312 14.523438 C 37.839844 14.582031 37.640625 14.632812 37.621094 14.644531 C 37.605469 14.65625 37.433594 14.710938 37.242188 14.769531 C 36.832031 14.890625 36.269531 15.082031 36.199219 15.121094 C 36.171875 15.136719 36.050781 15.183594 35.929688 15.226562 C 35.808594 15.265625 35.679688 15.316406 35.640625 15.335938 C 35.605469 15.359375 35.46875 15.414062 35.339844 15.460938 C 35.210938 15.511719 35.082031 15.566406 35.054688 15.582031 C 35.027344 15.601562 34.953125 15.632812 34.890625 15.660156 C 34.589844 15.777344 33.488281 16.324219 33 16.59375 C 32.871094 16.667969 32.675781 16.777344 32.570312 16.835938 C 32.460938 16.894531 32.34375 16.964844 32.308594 16.988281 C 32.273438 17.015625 32.109375 17.117188 31.945312 17.214844 C 31.78125 17.316406 31.621094 17.417969 31.59375 17.445312 C 31.566406 17.46875 31.535156 17.488281 31.523438 17.488281 C 31.511719 17.488281 31.363281 17.585938 31.191406 17.707031 C 31.019531 17.828125 30.820312 17.964844 30.746094 18.015625 C 30.632812 18.09375 30.238281 18.398438 29.894531 18.671875 C 29.777344 18.765625 29.554688 18.949219 29.21875 19.242188 C 28.632812 19.75 27.699219 20.742188 27.226562 21.359375 C 27.195312 21.402344 27.097656 21.527344 27.015625 21.636719 C 26.808594 21.902344 26.425781 22.460938 26.214844 22.800781 C 25.679688 23.664062 25.195312 24.621094 24.898438 25.390625 C 24.851562 25.511719 24.796875 25.640625 24.78125 25.675781 C 24.761719 25.710938 24.710938 25.851562 24.664062 25.988281 C 24.621094 26.125 24.574219 26.246094 24.566406 26.261719 C 24.554688 26.273438 24.5 26.433594 24.445312 26.617188 C 24.386719 26.796875 24.332031 26.96875 24.320312 26.992188 C 24.304688 27.015625 24.253906 27.195312 24.203125 27.394531 C 24.152344 27.59375 24.101562 27.773438 24.089844 27.796875 C 24.078125 27.820312 24.023438 28.03125 23.96875 28.269531 C 23.914062 28.503906 23.855469 28.765625 23.832031 28.847656 C 23.8125 28.929688 23.761719 29.199219 23.71875 29.445312 C 23.679688 29.691406 23.632812 29.933594 23.621094 29.980469 C 23.589844 30.097656 23.53125 30.503906 23.457031 31.136719 C 23.421875 31.425781 23.382812 31.738281 23.371094 31.835938 C 23.339844 32.070312 23.277344 32.949219 23.242188 33.675781 C 23.1875 34.699219 23.203125 37.710938 23.269531 39.773438 C 23.351562 42.203125 23.351562 45.355469 23.269531 45.148438 C 23.261719 45.121094 23.234375 44.894531 23.214844 44.648438 C 23.191406 44.402344 23.152344 43.996094 23.125 43.742188 C 23.097656 43.488281 23.050781 43.058594 23.023438 42.785156 C 22.992188 42.511719 22.960938 42.261719 22.949219 42.234375 C 22.9375 42.207031 22.882812 41.765625 22.824219 41.253906 C 22.769531 40.738281 22.710938 40.28125 22.699219 40.234375 C 22.675781 40.144531 22.636719 39.789062 22.5625 39.015625 C 22.542969 38.789062 22.511719 38.503906 22.5 38.378906 C 22.410156 37.582031 22.375 36.925781 22.375 35.992188 C 22.375 35.304688 22.40625 34.5625 22.453125 34.1875 C 22.496094 33.800781 22.621094 32.898438 22.660156 32.691406 C 22.746094 32.207031 22.925781 31.335938 22.945312 31.300781 C 22.957031 31.277344 23.007812 31.0625 23.058594 30.8125 C 23.109375 30.566406 23.164062 30.34375 23.175781 30.316406 C 23.191406 30.285156 23.25 30.050781 23.308594 29.792969 C 23.367188 29.535156 23.429688 29.269531 23.445312 29.210938 C 23.472656 29.097656 23.609375 28.425781 23.695312 27.953125 C 23.71875 27.816406 23.765625 27.496094 23.796875 27.242188 C 23.824219 26.992188 23.859375 26.746094 23.871094 26.695312 C 24.023438 26.109375 24.011719 21.558594 23.855469 18.871094 C 23.851562 18.761719 23.832031 18.398438 23.816406 18.0625 C 23.78125 17.21875 23.699219 16.351562 23.648438 16.28125 C 23.636719 16.269531 23.613281 16.191406 23.597656 16.109375 C 23.507812 15.671875 23.367188 15.472656 23.148438 15.472656 C 22.921875 15.472656 22.820312 15.574219 22.746094 15.882812 C 22.730469 15.953125 22.707031 16.03125 22.695312 16.058594 C 22.589844 16.320312 22.558594 17.589844 22.609375 19.671875 C 22.660156 21.773438 22.621094 22.695312 22.488281 22.5 C 22.285156 22.195312 22.226562 20.539062 22.347656 18.359375 C 22.441406 16.6875 22.441406 16.1875 22.335938 15.789062 C 22.078125 14.792969 21.308594 14.96875 21.09375 16.070312 C 21.082031 16.117188 21.066406 16.167969 21.058594 16.183594 C 21.035156 16.210938 20.96875 16.640625 20.933594 16.941406 C 20.914062 17.113281 20.914062 17.101562 20.910156 16.769531 C 20.90625 16.402344 20.878906 16.101562 20.835938 15.960938 C 20.820312 15.917969 20.785156 15.800781 20.753906 15.699219 C 20.527344 14.957031 19.875 14.824219 19.589844 15.460938 C 19.328125 16.039062 19.265625 16.777344 19.265625 19.394531 C 19.265625 20.960938 19.242188 21.699219 19.191406 21.753906 C 19.152344 21.792969 19.128906 21.167969 19.132812 20.203125 C 19.140625 19.238281 19.144531 19.078125 19.230469 17.875 C 19.253906 17.539062 19.273438 16.929688 19.273438 16.480469 L 19.277344 15.683594 L 19.191406 15.488281 C 19.042969 15.152344 18.765625 15.101562 18.527344 15.367188 C 18.339844 15.570312 18.046875 16.46875 18.046875 16.824219 C 18.046875 16.855469 18.035156 16.894531 18.023438 16.90625 C 17.933594 17.003906 17.855469 18.398438 17.820312 20.511719 C 17.792969 22.191406 17.757812 22.773438 17.582031 24.542969 C 17.476562 25.597656 17.503906 26.417969 17.671875 27.242188 C 17.730469 27.53125 17.957031 28.273438 18.023438 28.382812 C 18.035156 28.40625 18.089844 28.539062 18.144531 28.675781 C 18.304688 29.085938 18.472656 29.492188 18.496094 29.519531 C 18.503906 29.535156 18.554688 29.679688 18.605469 29.84375 C 18.65625 30.007812 18.707031 30.160156 18.71875 30.183594 C 18.855469 30.441406 19.039062 32.285156 19.011719 33.128906 L 19.003906 33.324219 L 18.886719 33.089844 C 18.382812 32.078125 17.675781 31.347656 16.695312 30.820312 C 16.320312 30.617188 15.71875 30.390625 15.421875 30.339844 C 15.367188 30.332031 15.308594 30.316406 15.296875 30.304688 C 15.121094 30.160156 13.175781 30.160156 12.898438 30.304688 C 12.875 30.316406 12.738281 30.355469 12.59375 30.386719 C 12.355469 30.445312 12.085938 30.539062 11.746094 30.679688 C 10.613281 31.152344 9.296875 32.363281 8.757812 33.433594 L 8.691406 33.5625 L 8.472656 33.460938 C 8.351562 33.40625 8.226562 33.347656 8.1875 33.328125 C 7.21875 32.800781 5 32.574219 3.789062 32.882812 C 3.710938 32.898438 3.507812 32.949219 3.332031 32.992188 C 3.15625 33.03125 2.976562 33.082031 2.933594 33.101562 C 2.890625 33.121094 2.792969 33.15625 2.71875 33.179688 C 2.082031 33.375 1.082031 33.902344 0.410156 34.398438 L 0.207031 34.546875 L 0.207031 34.839844 C 0.207031 35 0.210938 35.132812 0.21875 35.132812 C 0.226562 35.132812 0.347656 35.039062 0.484375 34.925781 C 1.019531 34.492188 2.105469 33.851562 2.519531 33.726562 C 2.554688 33.714844 2.671875 33.671875 2.785156 33.625 C 2.898438 33.578125 3.121094 33.507812 3.28125 33.464844 C 3.445312 33.421875 3.597656 33.375 3.625 33.363281 C 4.132812 33.121094 6.285156 33.128906 6.984375 33.375 C 7.039062 33.394531 7.1875 33.441406 7.3125 33.472656 C 7.699219 33.582031 8.464844 33.925781 8.464844 33.996094 C 8.464844 34.011719 8.449219 34.046875 8.429688 34.074219 C 8.410156 34.105469 8.355469 34.238281 8.308594 34.375 C 8.261719 34.511719 8.203125 34.664062 8.179688 34.71875 C 8.15625 34.769531 8.101562 34.984375 8.050781 35.191406 C 8.003906 35.398438 7.957031 35.605469 7.945312 35.65625 C 7.859375 36.011719 7.847656 37.339844 7.929688 37.695312 C 8.136719 38.605469 8.367188 39.105469 8.792969 39.570312 C 9.042969 39.84375 9.28125 39.980469 9.726562 40.117188 C 9.863281 40.160156 10.246094 40.171875 10.269531 40.136719 C 10.277344 40.125 10.328125 40.105469 10.386719 40.097656 C 10.796875 40.03125 11.253906 39.613281 11.425781 39.140625 C 11.457031 39.0625 11.496094 38.96875 11.511719 38.925781 C 11.632812 38.664062 11.675781 37.800781 11.59375 37.332031 C 11.460938 36.585938 11.070312 35.757812 10.53125 35.082031 C 10.214844 34.6875 9.5625 34.097656 9.183594 33.867188 C 9.0625 33.792969 9.0625 33.792969 9.21875 33.539062 C 9.769531 32.644531 10.605469 31.8125 11.390625 31.375 C 11.472656 31.328125 11.554688 31.28125 11.570312 31.265625 C 11.71875 31.152344 12.542969 30.835938 12.945312 30.738281 C 13.648438 30.570312 15.039062 30.597656 15.433594 30.789062 C 15.46875 30.804688 15.585938 30.84375 15.695312 30.875 C 16.859375 31.207031 18.109375 32.351562 18.605469 33.539062 C 18.644531 33.628906 18.695312 33.75 18.722656 33.808594 C 18.871094 34.136719 19.042969 34.863281 19.101562 35.40625 C 19.125 35.605469 19.152344 35.820312 19.167969 35.890625 C 19.246094 36.25 19.269531 38.941406 19.195312 39.078125 C 19.183594 39.105469 19.160156 39.351562 19.144531 39.625 C 19.097656 40.453125 18.992188 41.882812 18.964844 41.976562 C 18.929688 42.113281 18.742188 44.726562 18.742188 45.125 C 18.742188 45.230469 18.730469 45.3125 18.710938 45.332031 C 18.667969 45.375 18.667969 48.277344 18.710938 48.324219 C 18.730469 48.339844 18.742188 48.410156 18.742188 48.480469 C 18.742188 49.054688 18.988281 50.328125 19.183594 50.757812 C 19.210938 50.820312 19.265625 50.941406 19.300781 51.027344 C 20.113281 52.96875 22.191406 52.742188 22.867188 50.636719 C 22.90625 50.519531 22.945312 50.417969 22.953125 50.410156 C 22.980469 50.390625 23.148438 49.652344 23.148438 49.5625 C 23.148438 49.527344 23.15625 49.488281 23.171875 49.476562 C 23.203125 49.441406 23.265625 48.914062 23.296875 48.40625 C 23.324219 47.910156 23.359375 47.640625 23.410156 47.496094 C 23.445312 47.394531 23.539062 46.820312 23.609375 46.292969 C 23.628906 46.128906 23.65625 45.921875 23.667969 45.832031 C 23.792969 44.914062 23.769531 38.480469 23.640625 38.070312 C 23.605469 37.957031 23.601562 34.351562 23.636719 34.304688 C 23.652344 34.289062 23.671875 34.054688 23.679688 33.789062 C 23.699219 33.226562 23.78125 32.0625 23.832031 31.648438 C 23.957031 30.578125 24.140625 29.480469 24.300781 28.785156 C 24.429688 28.234375 24.566406 27.695312 24.585938 27.640625 C 24.601562 27.609375 24.644531 27.472656 24.679688 27.34375 C 24.785156 26.960938 25.21875 25.714844 25.296875 25.574219 C 25.316406 25.539062 25.359375 25.445312 25.390625 25.363281 C 25.449219 25.207031 25.925781 24.210938 26.046875 23.988281 C 26.777344 22.675781 27.488281 21.683594 28.460938 20.640625 C 28.996094 20.0625 29.664062 19.441406 30.289062 18.949219 C 30.40625 18.855469 30.546875 18.746094 30.601562 18.699219 C 30.65625 18.65625 30.761719 18.574219 30.835938 18.523438 C 30.910156 18.46875 30.984375 18.414062 31 18.402344 C 31.386719 18.109375 32.441406 17.425781 32.933594 17.152344 C 33.035156 17.097656 33.140625 17.035156 33.175781 17.011719 C 33.242188 16.96875 34.191406 16.46875 34.207031 16.46875 C 34.21875 16.46875 34.792969 16.199219 35.027344 16.082031 C 35.304688 15.945312 36.046875 15.644531 36.472656 15.496094 C 36.625 15.441406 36.765625 15.386719 36.789062 15.375 C 36.8125 15.359375 36.984375 15.304688 37.167969 15.25 C 37.351562 15.199219 37.523438 15.144531 37.546875 15.128906 C 37.570312 15.117188 37.753906 15.066406 37.953125 15.015625 C 38.152344 14.964844 38.332031 14.914062 38.351562 14.902344 C 38.375 14.890625 38.605469 14.839844 38.863281 14.792969 C 39.121094 14.742188 39.394531 14.683594 39.472656 14.664062 C 39.726562 14.597656 41.089844 14.453125 41.449219 14.453125 C 41.535156 14.453125 41.613281 14.441406 41.628906 14.425781 C 41.664062 14.390625 43.84375 14.367188 44.449219 14.402344 C 45.574219 14.460938 46.808594 14.582031 47.171875 14.664062 C 47.253906 14.683594 47.53125 14.738281 47.789062 14.789062 C 48.046875 14.839844 48.277344 14.890625 48.300781 14.902344 C 48.324219 14.914062 48.496094 14.964844 48.6875 15.011719 C 48.875 15.0625 49.0625 15.117188 49.097656 15.132812 C 49.132812 15.152344 49.296875 15.210938 49.460938 15.261719 C 49.625 15.3125 49.773438 15.367188 49.789062 15.378906 C 49.804688 15.390625 49.875 15.421875 49.949219 15.445312 C 50.386719 15.597656 51.703125 16.257812 52.210938 16.578125 C 52.257812 16.609375 52.40625 16.699219 52.535156 16.78125 C 54.578125 18.035156 56.285156 19.53125 57.816406 21.40625 C 58.253906 21.941406 58.332031 22.046875 58.730469 22.589844 C 58.878906 22.800781 59.445312 23.640625 59.546875 23.808594 C 60.140625 24.800781 60.679688 25.816406 60.921875 26.410156 C 60.96875 26.519531 61.015625 26.632812 61.035156 26.660156 C 61.050781 26.6875 61.101562 26.808594 61.144531 26.933594 C 61.1875 27.054688 61.234375 27.167969 61.246094 27.183594 C 61.304688 27.257812 61.691406 28.429688 61.828125 28.949219 C 61.882812 29.167969 61.945312 29.386719 61.960938 29.433594 C 61.976562 29.480469 62.023438 29.699219 62.066406 29.917969 C 62.109375 30.136719 62.152344 30.367188 62.167969 30.429688 C 62.214844 30.636719 62.3125 31.308594 62.363281 31.796875 C 62.390625 32.0625 62.425781 32.367188 62.4375 32.46875 C 62.53125 33.253906 62.53125 35.6875 62.4375 36.625 C 62.425781 36.753906 62.398438 37.058594 62.375 37.296875 C 62.3125 38.058594 62.210938 39 62.1875 39.074219 C 62.175781 39.117188 62.125 39.425781 62.074219 39.761719 C 61.964844 40.507812 62.015625 40.421875 61.339844 40.984375 C 61.28125 41.035156 61.152344 41.140625 61.058594 41.222656 C 60.910156 41.347656 60.71875 41.496094 60.222656 41.882812 C 60.175781 41.917969 60.007812 42.039062 59.851562 42.152344 C 59.691406 42.265625 59.527344 42.382812 59.480469 42.417969 C 59.132812 42.675781 58.054688 43.347656 57.664062 43.558594 C 57.589844 43.597656 57.429688 43.679688 57.3125 43.742188 C 57.195312 43.804688 57.078125 43.867188 57.050781 43.882812 C 56.925781 43.957031 55.921875 44.417969 55.820312 44.449219 C 55.785156 44.460938 55.675781 44.507812 55.574219 44.554688 C 55.363281 44.652344 55.347656 44.652344 55.441406 44.546875 C 55.746094 44.207031 56.449219 43.207031 56.816406 42.59375 C 57.160156 42.019531 57.273438 41.816406 57.523438 41.304688 C 57.640625 41.0625 57.753906 40.839844 57.773438 40.804688 C 57.828125 40.695312 58.078125 40.121094 58.136719 39.96875 C 58.164062 39.886719 58.214844 39.765625 58.246094 39.695312 C 58.277344 39.625 58.335938 39.46875 58.371094 39.347656 C 58.410156 39.226562 58.449219 39.113281 58.460938 39.101562 C 58.46875 39.085938 58.515625 38.945312 58.566406 38.789062 C 58.613281 38.628906 58.675781 38.433594 58.703125 38.351562 C 58.730469 38.273438 58.785156 38.054688 58.828125 37.867188 C 58.871094 37.683594 58.917969 37.511719 58.929688 37.484375 C 58.957031 37.421875 59.066406 36.886719 59.105469 36.601562 C 59.125 36.484375 59.144531 36.378906 59.15625 36.363281 C 59.21875 36.277344 59.34375 34.867188 59.367188 33.960938 C 59.394531 32.890625 59.257812 30.75 59.152344 30.640625 C 59.140625 30.628906 59.128906 30.59375 59.128906 30.5625 C 59.128906 30.472656 58.953125 29.527344 58.933594 29.496094 C 58.921875 29.484375 58.902344 29.425781 58.894531 29.371094 C 58.867188 29.210938 58.734375 28.675781 58.703125 28.597656 C 58.6875 28.558594 58.632812 28.367188 58.578125 28.175781 C 58.523438 27.984375 58.46875 27.816406 58.457031 27.804688 C 58.449219 27.789062 58.398438 27.648438 58.347656 27.492188 C 58.292969 27.335938 58.242188 27.195312 58.234375 27.179688 C 58.222656 27.167969 58.171875 27.042969 58.121094 26.90625 C 58.070312 26.769531 58.015625 26.636719 58 26.609375 C 57.984375 26.582031 57.941406 26.492188 57.910156 26.410156 C 57.84375 26.242188 57.414062 25.394531 57.320312 25.242188 C 56.699219 24.242188 56.351562 23.789062 55.695312 23.105469 C 54.949219 22.332031 53.976562 21.566406 52.921875 20.929688 C 52.785156 20.84375 52.625 20.75 52.570312 20.71875 C 52.515625 20.683594 52.410156 20.625 52.335938 20.585938 C 52.261719 20.546875 52.183594 20.5 52.160156 20.484375 C 52.117188 20.449219 50.980469 19.878906 50.953125 19.878906 C 50.945312 19.878906 50.871094 19.84375 50.792969 19.804688 C 50.714844 19.765625 50.574219 19.703125 50.480469 19.667969 C 50.386719 19.628906 50.261719 19.578125 50.207031 19.554688 C 50.015625 19.464844 49.410156 19.234375 49.226562 19.179688 C 49.121094 19.148438 49.027344 19.117188 49.015625 19.105469 C 48.980469 19.082031 48.636719 18.972656 48.417969 18.917969 C 48.320312 18.894531 48.230469 18.867188 48.21875 18.859375 C 48.191406 18.839844 47.753906 18.726562 47.582031 18.695312 C 47.535156 18.6875 47.421875 18.660156 47.335938 18.632812 C 47.160156 18.582031 46.761719 18.511719 46.316406 18.449219 C 46.164062 18.425781 45.988281 18.398438 45.933594 18.386719 C 45.304688 18.242188 42.863281 18.25 42.046875 18.398438 C 41.9375 18.417969 41.71875 18.449219 41.5625 18.472656 C 41.183594 18.523438 40.710938 18.609375 40.679688 18.632812 C 40.664062 18.644531 40.609375 18.660156 40.554688 18.667969 C 40.355469 18.703125 39.78125 18.835938 39.757812 18.855469 C 39.742188 18.867188 39.613281 18.90625 39.472656 18.941406 C 39.203125 19.011719 38.332031 19.296875 38.289062 19.328125 C 38.273438 19.339844 38.140625 19.390625 37.992188 19.441406 C 37.839844 19.496094 37.710938 19.542969 37.703125 19.554688 C 37.699219 19.5625 37.617188 19.597656 37.53125 19.628906 C 37.367188 19.6875 37.316406 19.710938 36.632812 20.03125 C 36.246094 20.210938 35.757812 20.46875 35.476562 20.632812 C 35.394531 20.683594 35.273438 20.75 35.203125 20.789062 C 35.070312 20.859375 34.960938 20.925781 34.519531 21.210938 C 34.066406 21.503906 33.976562 21.566406 33.714844 21.753906 C 33.578125 21.851562 33.417969 21.964844 33.363281 22.003906 C 33.304688 22.046875 33.242188 22.09375 33.222656 22.113281 C 33.203125 22.128906 33.066406 22.238281 32.914062 22.355469 C 32.761719 22.476562 32.601562 22.605469 32.554688 22.644531 C 32.503906 22.6875 32.417969 22.761719 32.359375 22.8125 C 31.394531 23.613281 29.878906 25.214844 29.304688 26.039062 C 29.261719 26.09375 29.164062 26.230469 29.082031 26.335938 C 28.851562 26.644531 28.222656 27.59375 28.136719 27.765625 C 28.113281 27.8125 28.078125 27.871094 28.0625 27.890625 C 28 27.964844 27.65625 28.609375 27.421875 29.085938 C 27.09375 29.757812 27.042969 29.871094 26.976562 30.054688 C 26.945312 30.144531 26.90625 30.238281 26.890625 30.265625 C 26.875 30.292969 26.824219 30.421875 26.777344 30.554688 C 26.734375 30.683594 26.691406 30.800781 26.679688 30.8125 C 26.65625 30.847656 26.457031 31.492188 26.457031 31.539062 C 26.457031 31.558594 26.445312 31.574219 26.433594 31.574219 C 26.421875 31.574219 26.371094 31.742188 26.320312 31.953125 C 26.273438 32.160156 26.21875 32.351562 26.207031 32.375 C 26.191406 32.402344 26.144531 32.621094 26.097656 32.863281 C 26.050781 33.105469 25.996094 33.375 25.972656 33.464844 C 25.898438 33.78125 25.796875 34.65625 25.769531 35.195312 C 25.761719 35.371094 25.742188 35.523438 25.726562 35.535156 C 25.691406 35.558594 25.695312 37.75 25.730469 37.765625 C 25.75 37.769531 25.761719 37.835938 25.761719 37.925781 C 25.761719 38.3125 25.902344 39.683594 25.972656 39.960938 C 25.988281 40.035156 26.023438 40.214844 26.046875 40.355469 C 26.105469 40.75 26.183594 41.136719 26.210938 41.191406 C 26.222656 41.21875 26.261719 41.378906 26.296875 41.550781 C 26.363281 41.871094 26.394531 42 26.433594 42.085938 C 26.445312 42.113281 26.496094 42.292969 26.542969 42.484375 C 26.59375 42.675781 26.648438 42.867188 26.667969 42.90625 C 26.6875 42.949219 26.734375 43.09375 26.777344 43.234375 C 26.816406 43.371094 26.871094 43.535156 26.898438 43.59375 C 26.925781 43.65625 26.980469 43.800781 27.015625 43.914062 C 27.054688 44.03125 27.097656 44.148438 27.113281 44.175781 C 27.132812 44.203125 27.179688 44.316406 27.222656 44.425781 C 27.355469 44.777344 27.96875 46.046875 28.058594 46.15625 C 28.078125 46.175781 28.121094 46.25 28.15625 46.320312 C 28.28125 46.5625 28.695312 47.191406 29.027344 47.636719 C 29.132812 47.777344 29.378906 48.085938 29.558594 48.300781 C 29.660156 48.417969 29.742188 48.535156 29.742188 48.558594 C 29.742188 48.605469 30.855469 49.726562 31.03125 49.855469 C 31.082031 49.894531 31.167969 49.96875 31.222656 50.019531 C 31.273438 50.070312 31.328125 50.113281 31.339844 50.113281 C 31.347656 50.113281 31.390625 50.140625 31.429688 50.179688 C 31.46875 50.21875 31.554688 50.289062 31.617188 50.335938 C 31.683594 50.382812 31.816406 50.480469 31.914062 50.554688 C 32.011719 50.625 32.15625 50.726562 32.230469 50.777344 C 32.304688 50.824219 32.371094 50.875 32.378906 50.886719 C 32.398438 50.910156 32.949219 51.28125 32.972656 51.28125 C 32.980469 51.28125 33.019531 51.308594 33.0625 51.34375 C 33.101562 51.378906 33.203125 51.445312 33.285156 51.496094 C 33.367188 51.542969 33.496094 51.617188 33.566406 51.664062 C 33.808594 51.8125 33.859375 51.839844 34.03125 51.933594 C 34.128906 51.988281 34.222656 52.042969 34.246094 52.0625 C 34.265625 52.078125 34.359375 52.128906 34.457031 52.175781 C 34.550781 52.222656 34.636719 52.269531 34.644531 52.277344 C 34.652344 52.289062 34.761719 52.34375 34.890625 52.402344 C 35.023438 52.464844 35.132812 52.515625 35.140625 52.523438 C 35.160156 52.546875 35.523438 52.699219 35.554688 52.699219 C 35.574219 52.699219 35.601562 52.714844 35.621094 52.734375 C 35.640625 52.757812 35.769531 52.8125 35.902344 52.863281 C 36.039062 52.914062 36.171875 52.96875 36.199219 52.988281 C 36.226562 53.003906 36.378906 53.0625 36.535156 53.113281 C 36.691406 53.164062 36.828125 53.214844 36.832031 53.222656 C 36.839844 53.234375 36.992188 53.28125 37.167969 53.332031 C 37.347656 53.382812 37.507812 53.433594 37.53125 53.445312 C 37.59375 53.476562 37.824219 53.539062 38.152344 53.605469 C 38.324219 53.644531 38.480469 53.683594 38.503906 53.695312 C 38.542969 53.714844 39.089844 53.8125 39.558594 53.878906 C 39.695312 53.902344 39.875 53.929688 39.957031 53.941406 C 40.039062 53.957031 40.519531 54.007812 41.027344 54.054688 C 41.53125 54.105469 42.019531 54.152344 42.109375 54.167969 C 42.652344 54.246094 43.976562 54.296875 44.660156 54.265625 C 45.664062 54.222656 46.984375 54 48.09375 53.683594 C 49.046875 53.414062 49.644531 53.214844 50.496094 52.886719 C 50.691406 52.808594 50.960938 52.710938 51.085938 52.664062 C 51.214844 52.617188 51.34375 52.558594 51.375 52.53125 C 51.402344 52.503906 51.5 52.453125 51.589844 52.417969 C 51.679688 52.386719 51.820312 52.324219 51.902344 52.28125 C 51.988281 52.238281 52.0625 52.203125 52.074219 52.203125 C 52.085938 52.203125 52.480469 52.019531 52.734375 51.894531 C 52.953125 51.785156 53.613281 51.4375 53.730469 51.367188 C 53.804688 51.324219 53.976562 51.222656 54.113281 51.144531 C 54.960938 50.652344 56.160156 49.816406 56.816406 49.253906 C 56.867188 49.210938 56.964844 49.128906 57.039062 49.066406 C 57.835938 48.402344 58.796875 47.433594 59.386719 46.703125 C 60.570312 45.234375 61.414062 43.773438 61.855469 42.421875 C 61.902344 42.277344 61.953125 42.144531 61.964844 42.121094 C 61.976562 42.097656 62.039062 41.890625 62.101562 41.660156 C 62.167969 41.429688 62.222656 41.234375 62.226562 41.226562 C 62.234375 41.214844 62.265625 41.074219 62.300781 40.914062 C 62.34375 40.726562 62.378906 40.605469 62.40625 40.585938 C 62.585938 40.453125 63.574219 39.484375 63.976562 39.050781 C 64.476562 38.511719 64.464844 38.527344 64.734375 38.203125 C 64.8125 38.109375 64.921875 37.980469 64.972656 37.917969 C 65.128906 37.734375 65.53125 37.199219 65.664062 37 C 66.046875 36.429688 66.214844 36.132812 66.648438 35.234375 C 66.75 35.03125 66.742188 35.027344 66.804688 35.355469 C 66.828125 35.472656 66.855469 35.589844 66.867188 35.617188 C 66.925781 35.742188 67.066406 36.886719 67.066406 37.222656 C 67.066406 37.304688 67.078125 37.375 67.089844 37.382812 C 67.105469 37.394531 67.117188 37.648438 67.117188 38.070312 C 67.117188 38.5 67.109375 38.738281 67.089844 38.738281 C 67.078125 38.738281 67.066406 38.8125 67.066406 38.914062 C 67.066406 39.257812 66.910156 40.949219 66.867188 41.042969 C 66.855469 41.070312 66.804688 41.425781 66.757812 41.835938 C 66.707031 42.25 66.652344 42.664062 66.628906 42.757812 C 66.597656 42.921875 66.464844 44.058594 66.433594 44.488281 C 66.425781 44.589844 66.40625 44.714844 66.394531 44.761719 C 66.308594 45.078125 66.238281 47.585938 66.292969 48.480469 C 66.328125 49.058594 66.371094 49.492188 66.394531 49.527344 C 66.40625 49.539062 66.421875 49.625 66.429688 49.710938 C 66.527344 50.609375 66.941406 51.648438 67.3125 51.921875 C 67.832031 52.304688 68.464844 52.148438 68.933594 51.519531 C 69.226562 51.125 69.65625 50.183594 69.65625 49.929688 C 69.65625 49.910156 69.664062 49.886719 69.679688 49.882812 C 69.742188 49.859375 69.949219 48.753906 70.019531 48.058594 C 70.074219 47.507812 70.085938 45.027344 70.035156 44.128906 C 70.015625 43.824219 69.984375 43.261719 69.964844 42.871094 C 69.941406 42.480469 69.914062 42.140625 69.902344 42.113281 C 69.890625 42.085938 69.851562 41.550781 69.816406 40.929688 C 69.699219 38.859375 69.675781 38.167969 69.722656 38.078125 C 69.738281 38.050781 69.78125 37.914062 69.816406 37.769531 C 69.855469 37.625 69.894531 37.488281 69.910156 37.460938 C 69.921875 37.433594 69.976562 37.257812 70.03125 37.0625 C 70.085938 36.871094 70.140625 36.703125 70.148438 36.6875 C 70.160156 36.671875 70.210938 36.535156 70.265625 36.375 C 70.316406 36.21875 70.367188 36.078125 70.378906 36.066406 C 70.386719 36.050781 70.425781 35.964844 70.457031 35.878906 C 70.859375 34.808594 71.585938 33.683594 72.339844 32.960938 C 72.890625 32.433594 73.554688 32.007812 74.109375 31.824219 C 74.238281 31.78125 74.367188 31.738281 74.394531 31.722656 C 74.777344 31.546875 76.203125 31.546875 76.433594 31.722656 C 76.449219 31.734375 76.523438 31.761719 76.597656 31.785156 C 77.09375 31.949219 77.917969 32.53125 77.828125 32.65625 C 77.539062 33.054688 77.09375 33.828125 76.96875 34.140625 C 76.941406 34.214844 76.90625 34.285156 76.894531 34.300781 C 76.882812 34.316406 76.832031 34.4375 76.785156 34.574219 C 76.734375 34.710938 76.679688 34.855469 76.660156 34.894531 C 76.640625 34.9375 76.589844 35.121094 76.546875 35.304688 C 76.503906 35.492188 76.457031 35.664062 76.445312 35.691406 C 76.242188 36.179688 76.367188 37.410156 76.664062 37.839844 C 76.882812 38.160156 77.511719 38.425781 77.679688 38.269531 C 77.695312 38.257812 77.757812 38.234375 77.824219 38.21875 C 78.242188 38.117188 78.722656 37.640625 78.949219 37.097656 C 78.984375 37.007812 79.023438 36.925781 79.035156 36.910156 C 79.066406 36.875 79.175781 36.507812 79.210938 36.339844 C 79.226562 36.257812 79.25 36.167969 79.261719 36.140625 C 79.359375 35.917969 79.355469 34.632812 79.261719 34.421875 C 79.25 34.394531 79.21875 34.285156 79.195312 34.171875 C 79.09375 33.6875 78.820312 33.089844 78.523438 32.695312 L 78.4375 32.585938 L 78.492188 32.511719 C 78.796875 32.078125 79.859375 31.03125 80.402344 30.628906 C 80.488281 30.566406 80.570312 30.503906 80.585938 30.492188 C 80.660156 30.429688 81.210938 30.0625 81.464844 29.902344 C 81.691406 29.761719 82.460938 29.371094 82.707031 29.273438 C 82.828125 29.222656 82.9375 29.175781 82.953125 29.164062 C 82.96875 29.152344 83.113281 29.101562 83.277344 29.046875 C 83.441406 28.996094 83.609375 28.941406 83.652344 28.921875 C 83.691406 28.90625 83.882812 28.855469 84.074219 28.8125 C 84.265625 28.765625 84.472656 28.71875 84.535156 28.699219 C 85.007812 28.558594 86.398438 28.496094 87.152344 28.578125 L 87.296875 28.59375 L 87.296875 28.167969 L 87.105469 28.148438 C 86.597656 28.09375 85.007812 28.140625 84.859375 28.214844 C 84.839844 28.222656 84.699219 28.253906 84.546875 28.277344 C 84.242188 28.324219 83.878906 28.402344 83.800781 28.4375 C 83.773438 28.449219 83.621094 28.496094 83.464844 28.539062 C 83.308594 28.582031 83.132812 28.636719 83.078125 28.660156 C 83.023438 28.683594 82.878906 28.742188 82.753906 28.785156 C 82.632812 28.832031 82.507812 28.878906 82.480469 28.898438 C 82.453125 28.914062 82.363281 28.953125 82.28125 28.984375 C 82.046875 29.078125 81.355469 29.441406 81.09375 29.609375 C 79.925781 30.359375 79.035156 31.132812 78.285156 32.050781 L 78.128906 32.242188 L 78.015625 32.136719 C 77.820312 31.953125 77.285156 31.574219 77.214844 31.574219 C 77.207031 31.574219 77.105469 31.53125 76.992188 31.476562 C 76.875 31.425781 76.710938 31.363281 76.621094 31.339844 C 76.53125 31.3125 76.386719 31.273438 76.296875 31.246094 C 75.945312 31.144531 75.1875 31.128906 74.742188 31.210938 C 74.488281 31.257812 73.988281 31.394531 73.871094 31.445312 C 73.816406 31.472656 73.710938 31.515625 73.636719 31.546875 C 72.523438 31.996094 71.398438 33.09375 70.65625 34.449219 C 70.488281 34.75 70.21875 35.308594 70.191406 35.40625 C 70.179688 35.441406 70.15625 35.492188 70.136719 35.527344 C 70.117188 35.558594 70.058594 35.6875 70.011719 35.8125 L 69.925781 36.039062 L 69.941406 35.792969 C 69.957031 35.484375 70.09375 33.660156 70.128906 33.253906 C 70.355469 30.609375 70.414062 27.289062 70.277344 24.792969 C 70.226562 23.882812 70.171875 23.148438 70.152344 23.101562 C 70.140625 23.074219 70.125 22.949219 70.117188 22.828125 C 70.085938 22.375 69.925781 20.808594 69.902344 20.75 C 69.882812 20.6875 69.84375 20.296875 69.816406 19.878906 C 69.765625 19.054688 69.699219 18.191406 69.679688 18.148438 C 69.667969 18.121094 69.625 17.65625 69.578125 17.117188 C 69.535156 16.578125 69.484375 16 69.46875 15.835938 C 69.367188 14.925781 69.246094 14.121094 69.207031 14.066406 C 69.199219 14.054688 69.167969 13.960938 69.144531 13.855469 C 69.097656 13.664062 69.011719 13.40625 68.984375 13.382812 C 68.976562 13.375 68.945312 13.316406 68.914062 13.25 C 68.75 12.898438 68.492188 12.726562 68.125 12.71875 C 67.988281 12.714844 67.859375 12.71875 67.839844 12.726562 M 68.242188 13.117188 C 68.363281 13.171875 68.554688 13.390625 68.636719 13.578125 C 68.679688 13.667969 68.726562 13.78125 68.746094 13.824219 C 68.785156 13.910156 68.894531 14.390625 68.921875 14.601562 C 68.929688 14.679688 68.945312 14.75 68.957031 14.765625 C 68.976562 14.789062 69.027344 15.230469 69.09375 15.921875 C 69.140625 16.394531 69.140625 16.394531 69.09375 16.394531 C 69.050781 16.394531 68.984375 16.609375 68.984375 16.742188 C 68.984375 16.792969 68.972656 16.84375 68.960938 16.855469 C 68.882812 16.933594 68.863281 20.703125 68.933594 21.695312 C 68.945312 21.867188 68.972656 22.253906 68.992188 22.554688 C 69.054688 23.457031 69.132812 24.449219 69.171875 24.804688 C 69.191406 24.988281 69.222656 25.273438 69.242188 25.441406 C 69.273438 25.734375 69.257812 26.042969 69.207031 26.160156 C 69.195312 26.1875 69.140625 26.484375 69.085938 26.816406 C 69.027344 27.148438 68.972656 27.4375 68.960938 27.460938 C 68.945312 27.484375 68.894531 27.707031 68.84375 27.949219 C 68.796875 28.195312 68.75 28.410156 68.738281 28.421875 C 68.730469 28.4375 68.675781 28.636719 68.617188 28.859375 C 68.558594 29.085938 68.46875 29.429688 68.410156 29.621094 C 68.355469 29.8125 68.304688 30.003906 68.292969 30.042969 C 68.285156 30.085938 68.269531 30.125 68.261719 30.128906 C 68.25 30.136719 68.203125 30.28125 68.152344 30.453125 C 68.101562 30.625 68.042969 30.796875 68.027344 30.839844 C 68.007812 30.878906 67.949219 31.046875 67.898438 31.210938 C 67.847656 31.375 67.789062 31.535156 67.773438 31.5625 C 67.757812 31.589844 67.707031 31.722656 67.664062 31.859375 C 67.617188 31.996094 67.574219 32.121094 67.5625 32.132812 C 67.550781 32.148438 67.5 32.277344 67.449219 32.421875 C 67.398438 32.5625 67.34375 32.703125 67.328125 32.730469 C 67.308594 32.757812 67.253906 32.886719 67.203125 33.015625 C 67.15625 33.148438 67.085938 33.308594 67.054688 33.378906 C 67.023438 33.445312 66.960938 33.589844 66.917969 33.695312 C 66.824219 33.921875 66.816406 33.917969 66.742188 33.652344 C 66.714844 33.542969 66.671875 33.417969 66.65625 33.378906 C 66.636719 33.335938 66.578125 33.152344 66.519531 32.96875 C 66.464844 32.78125 66.398438 32.570312 66.371094 32.492188 C 66.34375 32.417969 66.292969 32.242188 66.257812 32.105469 C 66.222656 31.972656 66.183594 31.847656 66.171875 31.835938 C 66.160156 31.820312 66.109375 31.648438 66.058594 31.449219 C 66.007812 31.253906 65.960938 31.074219 65.949219 31.050781 C 65.929688 31.015625 65.824219 30.558594 65.746094 30.167969 C 65.726562 30.085938 65.707031 30.007812 65.695312 29.992188 C 65.675781 29.964844 65.5 28.902344 65.5 28.804688 C 65.5 28.769531 65.488281 28.738281 65.476562 28.734375 C 65.425781 28.710938 65.261719 26.855469 65.199219 25.527344 C 65.167969 24.882812 65.1875 22.140625 65.222656 22.03125 C 65.238281 21.988281 65.261719 21.6875 65.277344 21.359375 C 65.316406 20.488281 65.429688 19.175781 65.472656 19.070312 C 65.484375 19.042969 65.535156 18.722656 65.585938 18.359375 C 65.636719 18 65.6875 17.683594 65.699219 17.664062 C 65.710938 17.644531 65.761719 17.429688 65.808594 17.191406 C 65.855469 16.953125 65.921875 16.664062 65.957031 16.554688 C 65.988281 16.445312 66.046875 16.238281 66.085938 16.097656 C 66.125 15.953125 66.164062 15.828125 66.171875 15.820312 C 66.183594 15.816406 66.214844 15.726562 66.246094 15.625 C 66.664062 14.195312 67.707031 12.890625 68.242188 13.117188 M 20.195312 15.597656 C 20.4375 15.886719 20.507812 16.386719 20.460938 17.488281 C 20.320312 20.921875 20.40625 22.433594 20.753906 22.570312 C 20.863281 22.613281 21.082031 22.582031 21.132812 22.519531 C 21.273438 22.34375 21.316406 21.96875 21.308594 20.867188 C 21.300781 18.429688 21.300781 17.765625 21.316406 17.652344 C 21.324219 17.582031 21.34375 17.382812 21.359375 17.203125 C 21.417969 16.445312 21.554688 15.871094 21.726562 15.648438 L 21.773438 15.589844 L 21.824219 15.6875 C 21.988281 16.011719 22.015625 16.613281 21.925781 18.085938 C 21.816406 19.894531 21.84375 21.902344 21.988281 22.347656 C 22.007812 22.40625 22.035156 22.507812 22.054688 22.578125 C 22.226562 23.234375 22.691406 23.304688 22.921875 22.710938 C 23.070312 22.320312 23.082031 21.921875 23.039062 18.746094 C 23.015625 17.203125 23.027344 16.808594 23.101562 16.285156 C 23.140625 16.007812 23.183594 16.097656 23.261719 16.640625 C 23.402344 17.625 23.460938 18.964844 23.546875 22.964844 C 23.566406 24.011719 23.550781 25.355469 23.507812 25.875 C 23.449219 26.636719 23.414062 26.964844 23.398438 27.007812 C 23.386719 27.035156 23.347656 27.277344 23.308594 27.542969 C 23.273438 27.808594 23.226562 28.101562 23.207031 28.1875 C 23.191406 28.277344 23.125 28.597656 23.0625 28.898438 C 23 29.199219 22.9375 29.472656 22.921875 29.507812 C 22.898438 29.570312 22.804688 29.960938 22.589844 30.917969 C 22.53125 31.175781 22.46875 31.429688 22.457031 31.476562 C 22.421875 31.578125 22.316406 32.128906 22.277344 32.40625 C 22.261719 32.515625 22.238281 32.628906 22.226562 32.65625 C 22.191406 32.738281 22.105469 33.367188 22.039062 34.042969 C 22.019531 34.25 21.988281 34.535156 21.976562 34.671875 C 21.941406 34.996094 21.941406 36.976562 21.976562 37.347656 C 21.988281 37.503906 22.019531 37.839844 22.039062 38.09375 C 22.09375 38.761719 22.175781 39.609375 22.203125 39.804688 C 22.21875 39.894531 22.265625 40.296875 22.316406 40.691406 C 22.363281 41.089844 22.417969 41.539062 22.441406 41.6875 C 22.519531 42.257812 22.546875 42.476562 22.613281 43.121094 C 22.648438 43.480469 22.6875 43.800781 22.699219 43.828125 C 22.71875 43.875 22.789062 44.6875 22.851562 45.546875 C 22.863281 45.75 22.882812 46.320312 22.890625 46.816406 L 22.90625 47.710938 L 22.8125 48.070312 C 22.761719 48.269531 22.707031 48.449219 22.695312 48.46875 C 22.683594 48.488281 22.628906 48.632812 22.574219 48.789062 C 22.519531 48.945312 22.464844 49.085938 22.453125 49.101562 C 22.441406 49.117188 22.402344 49.203125 22.363281 49.289062 C 22.074219 49.949219 21.5625 50.492188 21.226562 50.492188 C 20.921875 50.492188 20.503906 50.027344 20.246094 49.402344 C 20.199219 49.277344 20.148438 49.167969 20.136719 49.152344 C 20.128906 49.140625 20.089844 49.035156 20.054688 48.917969 C 20.019531 48.800781 19.964844 48.609375 19.929688 48.492188 C 19.839844 48.199219 19.71875 47.640625 19.636719 47.125 C 19.46875 46.082031 19.46875 44.097656 19.640625 42.695312 C 19.714844 42.078125 19.816406 41.0625 19.851562 40.570312 C 19.871094 40.253906 19.902344 39.964844 19.917969 39.921875 C 19.953125 39.816406 19.972656 37.710938 19.941406 37.320312 C 19.835938 36.097656 19.761719 35.558594 19.527344 34.472656 C 19.492188 34.308594 19.464844 34.109375 19.464844 34.03125 C 19.464844 33.953125 19.453125 33.882812 19.441406 33.875 C 19.425781 33.867188 19.414062 33.570312 19.414062 33.070312 C 19.414062 31.933594 19.355469 31.019531 19.253906 30.527344 C 19.195312 30.242188 19.042969 29.707031 18.976562 29.550781 C 18.941406 29.464844 18.882812 29.320312 18.851562 29.222656 C 18.820312 29.128906 18.777344 29.027344 18.757812 29 C 18.742188 28.972656 18.691406 28.855469 18.644531 28.738281 C 18.601562 28.621094 18.542969 28.480469 18.519531 28.425781 C 18.492188 28.371094 18.429688 28.207031 18.378906 28.066406 C 18.328125 27.921875 18.28125 27.792969 18.269531 27.777344 C 18.234375 27.730469 18.046875 26.917969 17.996094 26.585938 C 17.921875 26.144531 17.945312 24.871094 18.035156 24.332031 C 18.148438 23.628906 18.214844 22.371094 18.238281 20.542969 C 18.246094 19.738281 18.261719 19.074219 18.273438 19.066406 C 18.285156 19.058594 18.296875 18.949219 18.296875 18.820312 C 18.296875 17.773438 18.535156 16.207031 18.75 15.84375 L 18.816406 15.738281 L 18.835938 15.8125 C 18.867188 15.929688 18.851562 16.863281 18.796875 17.925781 C 18.765625 18.472656 18.742188 19.015625 18.742188 19.132812 C 18.742188 19.25 18.730469 19.355469 18.71875 19.371094 C 18.652344 19.433594 18.714844 21.574219 18.792969 22.042969 C 18.875 22.539062 19.042969 22.714844 19.304688 22.589844 C 19.632812 22.429688 19.710938 21.746094 19.707031 19.070312 C 19.707031 16.652344 19.78125 15.875 20.054688 15.566406 C 20.109375 15.507812 20.121094 15.511719 20.195312 15.597656 M 45.082031 18.683594 C 45.492188 18.714844 46.285156 18.800781 46.425781 18.832031 C 46.480469 18.847656 46.722656 18.894531 46.960938 18.941406 C 47.523438 19.054688 47.664062 19.085938 47.695312 19.109375 C 47.707031 19.117188 47.886719 19.167969 48.09375 19.21875 C 48.296875 19.269531 48.480469 19.324219 48.496094 19.335938 C 48.507812 19.347656 48.671875 19.402344 48.851562 19.457031 C 49.035156 19.507812 49.195312 19.5625 49.210938 19.574219 C 49.226562 19.589844 49.332031 19.628906 49.449219 19.667969 C 49.566406 19.703125 49.707031 19.757812 49.761719 19.785156 C 49.816406 19.808594 49.933594 19.859375 50.023438 19.894531 C 50.648438 20.132812 52.0625 20.851562 52.660156 21.234375 C 52.707031 21.265625 52.875 21.371094 53.03125 21.472656 C 53.191406 21.574219 53.363281 21.691406 53.421875 21.730469 C 53.480469 21.773438 53.628906 21.878906 53.753906 21.96875 C 54.644531 22.597656 55.6875 23.597656 56.226562 24.34375 C 56.269531 24.398438 56.3125 24.457031 56.328125 24.46875 C 56.542969 24.65625 57.378906 26.125 57.652344 26.792969 C 57.699219 26.910156 57.746094 27.015625 57.757812 27.03125 C 57.769531 27.046875 57.820312 27.171875 57.867188 27.3125 C 57.917969 27.449219 57.96875 27.585938 57.984375 27.609375 C 57.996094 27.632812 58.046875 27.78125 58.097656 27.941406 C 58.148438 28.097656 58.203125 28.261719 58.21875 28.300781 C 58.238281 28.34375 58.292969 28.539062 58.34375 28.738281 C 58.390625 28.933594 58.441406 29.113281 58.453125 29.136719 C 58.464844 29.15625 58.515625 29.375 58.566406 29.621094 C 58.617188 29.867188 58.667969 30.089844 58.679688 30.117188 C 58.71875 30.199219 58.875 31.277344 58.953125 32.007812 C 58.996094 32.378906 59.03125 33.5 59.015625 33.914062 C 58.992188 34.554688 58.957031 35.136719 58.929688 35.230469 C 58.917969 35.277344 58.886719 35.507812 58.859375 35.742188 C 58.796875 36.246094 58.703125 36.855469 58.679688 36.875 C 58.671875 36.878906 58.648438 36.980469 58.621094 37.097656 C 58.519531 37.601562 58.476562 37.785156 58.457031 37.820312 C 58.449219 37.839844 58.390625 38.03125 58.332031 38.242188 C 58.277344 38.453125 58.21875 38.640625 58.207031 38.652344 C 58.199219 38.667969 58.148438 38.8125 58.097656 38.976562 C 58.046875 39.140625 57.996094 39.285156 57.984375 39.300781 C 57.972656 39.3125 57.929688 39.425781 57.886719 39.546875 C 57.84375 39.667969 57.78125 39.824219 57.75 39.894531 C 57.714844 39.964844 57.664062 40.085938 57.636719 40.160156 C 57.539062 40.402344 57.125 41.25 56.917969 41.625 C 56.851562 41.742188 56.75 41.925781 56.695312 42.03125 C 56.636719 42.136719 56.550781 42.277344 56.507812 42.34375 C 56.464844 42.40625 56.367188 42.558594 56.292969 42.679688 C 56.171875 42.871094 55.800781 43.40625 55.527344 43.78125 C 55.070312 44.410156 54.601562 44.921875 54.433594 44.972656 C 54.355469 44.996094 54.277344 45.027344 54.265625 45.035156 C 54.25 45.046875 54.09375 45.097656 53.914062 45.148438 C 53.738281 45.199219 53.582031 45.25 53.566406 45.257812 C 53.554688 45.269531 53.359375 45.324219 53.132812 45.382812 C 52.90625 45.441406 52.703125 45.496094 52.683594 45.507812 C 52.664062 45.519531 52.46875 45.566406 52.25 45.617188 C 52.03125 45.667969 51.832031 45.71875 51.808594 45.730469 C 51.789062 45.742188 51.570312 45.792969 51.324219 45.84375 C 51.082031 45.894531 50.808594 45.957031 50.71875 45.980469 C 50.628906 46.007812 50.359375 46.0625 50.121094 46.105469 C 49.882812 46.148438 49.664062 46.195312 49.636719 46.207031 C 49.589844 46.226562 49.097656 46.316406 48.679688 46.382812 C 48.574219 46.398438 48.484375 46.421875 48.480469 46.429688 C 48.472656 46.4375 48.164062 46.492188 47.792969 46.550781 C 47.425781 46.609375 47.09375 46.664062 47.058594 46.679688 C 47.027344 46.691406 46.710938 46.742188 46.363281 46.789062 C 46.015625 46.839844 45.707031 46.890625 45.679688 46.902344 C 45.652344 46.914062 45.539062 46.933594 45.429688 46.949219 C 44.769531 47.03125 44.265625 47.105469 44.113281 47.136719 C 44.015625 47.160156 43.628906 47.214844 43.253906 47.265625 C 42.875 47.3125 42.539062 47.363281 42.507812 47.375 C 42.472656 47.386719 42.347656 47.410156 42.234375 47.425781 C 41.71875 47.488281 41.121094 47.578125 41.074219 47.601562 C 41.046875 47.613281 40.878906 47.644531 40.703125 47.671875 C 40.292969 47.738281 40.015625 47.789062 39.855469 47.835938 C 39.789062 47.855469 39.59375 47.90625 39.425781 47.945312 C 39.257812 47.988281 39.082031 48.035156 39.039062 48.058594 C 38.996094 48.078125 38.878906 48.121094 38.777344 48.15625 C 37.796875 48.503906 37.707031 49.222656 38.59375 49.617188 C 38.6875 49.660156 38.804688 49.710938 38.863281 49.738281 C 38.914062 49.761719 39.09375 49.816406 39.257812 49.859375 C 39.421875 49.902344 39.617188 49.953125 39.6875 49.972656 C 40.574219 50.21875 44.128906 50.195312 44.847656 49.9375 C 44.878906 49.925781 44.964844 49.910156 45.03125 49.902344 C 45.269531 49.871094 46.003906 49.738281 46.050781 49.714844 C 46.078125 49.703125 46.136719 49.6875 46.175781 49.679688 C 46.414062 49.636719 46.964844 49.511719 47.003906 49.492188 C 47.027344 49.480469 47.222656 49.425781 47.433594 49.375 C 47.644531 49.324219 47.851562 49.269531 47.894531 49.25 C 47.933594 49.234375 48.113281 49.179688 48.292969 49.128906 C 48.46875 49.078125 48.621094 49.03125 48.628906 49.019531 C 48.636719 49.011719 48.78125 48.960938 48.953125 48.90625 C 49.121094 48.855469 49.273438 48.804688 49.289062 48.792969 C 49.300781 48.78125 49.445312 48.726562 49.609375 48.671875 C 49.769531 48.613281 49.917969 48.558594 49.933594 48.546875 C 49.945312 48.535156 50.042969 48.496094 50.144531 48.457031 C 50.25 48.417969 50.378906 48.363281 50.433594 48.332031 C 50.488281 48.300781 50.558594 48.269531 50.59375 48.257812 C 50.742188 48.210938 51.535156 47.808594 51.988281 47.550781 C 52.25 47.398438 52.851562 46.996094 53.085938 46.816406 C 53.195312 46.734375 53.324219 46.636719 53.367188 46.601562 C 53.707031 46.339844 54.28125 45.824219 54.621094 45.472656 L 54.84375 45.238281 L 55.113281 45.148438 C 55.261719 45.097656 55.394531 45.046875 55.410156 45.035156 C 55.421875 45.023438 55.53125 44.980469 55.65625 44.9375 C 55.777344 44.894531 55.90625 44.84375 55.941406 44.824219 C 55.976562 44.804688 56.101562 44.75 56.21875 44.703125 C 56.476562 44.597656 56.953125 44.378906 56.996094 44.347656 C 57.011719 44.332031 57.097656 44.292969 57.1875 44.253906 C 57.277344 44.214844 57.378906 44.164062 57.410156 44.140625 C 57.445312 44.117188 57.558594 44.058594 57.660156 44.007812 C 57.761719 43.957031 57.898438 43.886719 57.960938 43.851562 C 58.402344 43.59375 58.5625 43.5 58.707031 43.410156 C 58.957031 43.253906 59.773438 42.710938 59.925781 42.597656 C 60 42.542969 60.089844 42.480469 60.125 42.457031 C 60.222656 42.386719 60.742188 41.996094 60.847656 41.914062 C 60.898438 41.871094 61 41.792969 61.074219 41.734375 C 61.148438 41.675781 61.335938 41.523438 61.492188 41.394531 C 61.648438 41.261719 61.78125 41.160156 61.785156 41.160156 C 61.8125 41.191406 61.3125 42.695312 61.246094 42.78125 C 61.238281 42.796875 61.203125 42.875 61.167969 42.957031 C 61.03125 43.3125 60.519531 44.304688 60.289062 44.660156 C 59.671875 45.613281 59.378906 46.007812 58.734375 46.753906 C 57.984375 47.617188 56.941406 48.589844 55.933594 49.363281 C 55.78125 49.484375 55.71875 49.527344 55.265625 49.851562 C 54.945312 50.082031 54.261719 50.535156 54.238281 50.535156 C 54.226562 50.535156 54.183594 50.5625 54.140625 50.59375 C 54.101562 50.625 54.015625 50.675781 53.953125 50.710938 C 53.890625 50.746094 53.691406 50.859375 53.511719 50.964844 C 52.867188 51.339844 51.878906 51.820312 51.136719 52.121094 C 51.011719 52.171875 50.914062 52.226562 50.90625 52.25 C 50.898438 52.273438 50.832031 52.3125 50.753906 52.335938 C 50.675781 52.359375 50.535156 52.414062 50.4375 52.453125 C 50.210938 52.546875 49.804688 52.695312 49.386719 52.839844 C 49.210938 52.898438 49.042969 52.957031 49.015625 52.972656 C 48.84375 53.054688 47.515625 53.40625 46.785156 53.5625 C 45.199219 53.898438 44.160156 53.941406 41.945312 53.753906 C 41.550781 53.722656 41.167969 53.683594 41.101562 53.671875 C 41.03125 53.65625 40.851562 53.632812 40.703125 53.621094 C 40.183594 53.574219 39.335938 53.46875 39.285156 53.445312 C 39.257812 53.433594 39.066406 53.394531 38.863281 53.359375 C 38.65625 53.324219 38.425781 53.28125 38.351562 53.261719 C 37.867188 53.136719 37.347656 52.992188 37.3125 52.972656 C 37.257812 52.941406 36.734375 52.773438 36.691406 52.773438 C 36.671875 52.773438 36.660156 52.765625 36.660156 52.753906 C 36.660156 52.738281 36.550781 52.695312 36.417969 52.648438 C 36.289062 52.605469 36.128906 52.542969 36.066406 52.511719 C 36 52.480469 35.855469 52.417969 35.738281 52.375 C 35.621094 52.328125 35.519531 52.28125 35.515625 52.273438 C 35.507812 52.261719 35.40625 52.210938 35.289062 52.160156 C 35.175781 52.109375 35.074219 52.058594 35.066406 52.050781 C 35.058594 52.039062 34.949219 51.980469 34.816406 51.917969 C 34.554688 51.789062 34.21875 51.605469 34.167969 51.566406 C 34.148438 51.550781 34.070312 51.503906 33.992188 51.460938 C 33.914062 51.417969 33.816406 51.363281 33.78125 51.335938 C 33.683594 51.269531 33.417969 51.101562 33.21875 50.980469 C 33.125 50.925781 33.050781 50.871094 33.050781 50.855469 C 33.050781 50.84375 33.039062 50.832031 33.027344 50.832031 C 32.996094 50.832031 32.734375 50.664062 32.671875 50.605469 C 32.648438 50.582031 32.59375 50.542969 32.546875 50.519531 C 32.503906 50.496094 32.425781 50.441406 32.375 50.402344 C 32.324219 50.359375 32.179688 50.25 32.054688 50.160156 C 31.929688 50.074219 31.792969 49.96875 31.753906 49.929688 C 31.710938 49.894531 31.636719 49.832031 31.582031 49.796875 C 31.527344 49.761719 31.484375 49.722656 31.484375 49.710938 C 31.484375 49.699219 31.445312 49.664062 31.402344 49.640625 C 31.265625 49.554688 30.582031 48.886719 30.546875 48.796875 C 30.527344 48.753906 30.464844 48.667969 30.40625 48.609375 C 30.234375 48.445312 29.738281 47.890625 29.621094 47.738281 C 29.234375 47.238281 29.007812 46.925781 28.839844 46.664062 C 28.769531 46.554688 28.667969 46.394531 28.609375 46.304688 C 28.378906 45.945312 27.914062 45.054688 27.714844 44.589844 C 27.664062 44.472656 27.613281 44.367188 27.605469 44.351562 C 27.59375 44.335938 27.546875 44.226562 27.503906 44.105469 C 27.460938 43.984375 27.402344 43.828125 27.367188 43.757812 C 27.335938 43.6875 27.28125 43.527344 27.242188 43.40625 C 27.203125 43.28125 27.164062 43.175781 27.15625 43.167969 C 27.128906 43.148438 26.910156 42.414062 26.796875 41.960938 C 26.742188 41.742188 26.6875 41.558594 26.679688 41.550781 C 26.609375 41.496094 26.277344 39.582031 26.171875 38.625 C 26.046875 37.519531 26.070312 34.671875 26.207031 34.433594 C 26.21875 34.414062 26.234375 34.324219 26.246094 34.234375 C 26.269531 34.023438 26.375 33.332031 26.40625 33.191406 C 26.515625 32.6875 26.660156 32.101562 26.679688 32.066406 C 26.691406 32.042969 26.726562 31.941406 26.753906 31.84375 C 26.832031 31.539062 26.886719 31.363281 26.90625 31.335938 C 26.914062 31.324219 26.972656 31.167969 27.027344 30.988281 C 27.085938 30.8125 27.144531 30.652344 27.152344 30.640625 C 27.164062 30.625 27.214844 30.503906 27.265625 30.367188 C 27.316406 30.230469 27.367188 30.105469 27.378906 30.09375 C 27.390625 30.078125 27.421875 30.011719 27.449219 29.941406 C 27.640625 29.449219 28.128906 28.539062 28.664062 27.667969 C 28.851562 27.363281 29.199219 26.859375 29.492188 26.476562 C 29.648438 26.265625 29.816406 26.042969 29.859375 25.980469 C 29.90625 25.917969 29.980469 25.824219 30.023438 25.773438 C 30.066406 25.726562 30.152344 25.625 30.214844 25.550781 C 31.699219 23.773438 33.636719 22.144531 35.5625 21.042969 C 35.707031 20.960938 35.910156 20.84375 36.011719 20.785156 C 36.195312 20.679688 37.261719 20.152344 37.289062 20.152344 C 37.296875 20.152344 37.394531 20.109375 37.511719 20.054688 C 37.625 20.003906 37.800781 19.929688 37.902344 19.890625 C 38.003906 19.855469 38.101562 19.816406 38.113281 19.804688 C 38.128906 19.796875 38.261719 19.746094 38.414062 19.691406 C 38.5625 19.640625 38.699219 19.589844 38.710938 19.578125 C 38.726562 19.570312 38.898438 19.511719 39.097656 19.457031 C 39.296875 19.398438 39.46875 19.339844 39.484375 19.328125 C 39.496094 19.320312 39.675781 19.269531 39.882812 19.222656 C 40.085938 19.171875 40.273438 19.121094 40.296875 19.109375 C 40.320312 19.09375 40.546875 19.042969 40.804688 18.996094 C 41.0625 18.945312 41.324219 18.894531 41.386719 18.878906 C 42.164062 18.703125 44.007812 18.605469 45.082031 18.683594 M 20.894531 20.476562 C 20.90625 21.085938 20.90625 21.578125 20.898438 21.570312 C 20.839844 21.515625 20.773438 19.058594 20.824219 18.882812 C 20.855469 18.78125 20.875 19.269531 20.894531 20.476562 M 69.4375 20.324219 C 69.515625 20.527344 69.566406 22.472656 69.511719 23.3125 L 69.492188 23.597656 L 69.460938 23.25 C 69.375 22.265625 69.320312 21.121094 69.296875 19.753906 L 69.289062 19.144531 L 69.355469 19.714844 C 69.390625 20.03125 69.425781 20.304688 69.4375 20.324219 M 69.878906 25.140625 C 69.9375 26.085938 69.949219 26.425781 69.945312 27.355469 C 69.945312 27.890625 69.941406 28.253906 69.933594 28.164062 C 69.929688 28.074219 69.914062 27.992188 69.902344 27.980469 C 69.890625 27.964844 69.878906 27.910156 69.878906 27.855469 C 69.878906 27.632812 69.699219 25.710938 69.675781 25.65625 C 69.652344 25.617188 69.652344 25.585938 69.675781 25.546875 C 69.699219 25.492188 69.800781 24.59375 69.808594 24.335938 C 69.8125 24.199219 69.84375 24.546875 69.878906 25.140625 M 69.46875 27.742188 C 69.664062 29.8125 69.699219 32.664062 69.554688 35.09375 C 69.527344 35.542969 69.46875 36.007812 69.429688 36.089844 C 69.386719 36.183594 69.328125 36.816406 69.316406 37.394531 C 69.296875 38.148438 69.378906 40.523438 69.429688 40.644531 C 69.441406 40.671875 69.488281 41.289062 69.53125 42.019531 C 69.574219 42.75 69.625 43.605469 69.644531 43.921875 C 69.710938 44.996094 69.722656 45.320312 69.722656 46.179688 C 69.726562 47.015625 69.707031 47.402344 69.65625 47.859375 C 69.640625 47.984375 69.617188 48.191406 69.605469 48.320312 C 69.566406 48.65625 69.457031 49.3125 69.429688 49.363281 C 69.417969 49.382812 69.378906 49.527344 69.34375 49.675781 C 69.21875 50.183594 68.902344 50.898438 68.664062 51.207031 C 68.175781 51.828125 67.796875 51.910156 67.441406 51.464844 C 67.234375 51.203125 67.074219 50.855469 66.96875 50.433594 C 66.925781 50.265625 66.878906 50.101562 66.867188 50.074219 C 66.8125 49.957031 66.699219 49.011719 66.675781 48.5 C 66.667969 48.304688 66.652344 48.136719 66.640625 48.132812 C 66.613281 48.113281 66.613281 46.535156 66.640625 46.519531 C 66.652344 46.511719 66.667969 46.324219 66.675781 46.101562 C 66.703125 45.410156 66.828125 43.945312 66.867188 43.851562 C 66.878906 43.824219 66.929688 43.449219 66.980469 43.019531 C 67.03125 42.589844 67.082031 42.195312 67.09375 42.148438 C 67.121094 42.050781 67.246094 41.050781 67.292969 40.59375 C 67.308594 40.429688 67.328125 40.273438 67.339844 40.246094 C 67.492188 39.902344 67.492188 36.496094 67.34375 36.140625 C 67.332031 36.113281 67.292969 35.898438 67.253906 35.667969 C 67.21875 35.4375 67.164062 35.167969 67.140625 35.070312 C 67.113281 34.972656 67.070312 34.808594 67.042969 34.699219 L 66.992188 34.503906 L 67.042969 34.367188 C 67.070312 34.292969 67.109375 34.210938 67.128906 34.179688 C 67.148438 34.148438 67.199219 34.035156 67.242188 33.925781 C 67.285156 33.816406 67.328125 33.714844 67.339844 33.699219 C 67.351562 33.6875 67.402344 33.570312 67.449219 33.441406 C 67.5 33.308594 67.554688 33.175781 67.574219 33.140625 C 67.59375 33.105469 67.652344 32.964844 67.699219 32.828125 C 67.75 32.695312 67.796875 32.574219 67.8125 32.558594 C 67.824219 32.542969 67.875 32.40625 67.925781 32.257812 C 67.976562 32.105469 68.03125 31.972656 68.042969 31.957031 C 68.0625 31.929688 68.210938 31.496094 68.386719 30.953125 C 68.445312 30.78125 68.503906 30.605469 68.523438 30.566406 C 68.539062 30.523438 68.589844 30.355469 68.636719 30.191406 C 68.679688 30.027344 68.726562 29.882812 68.734375 29.867188 C 68.746094 29.855469 68.800781 29.660156 68.859375 29.433594 C 68.914062 29.207031 68.972656 29 68.984375 28.972656 C 69.011719 28.910156 69.089844 28.597656 69.144531 28.3125 C 69.167969 28.199219 69.195312 28.09375 69.207031 28.082031 C 69.21875 28.070312 69.265625 27.863281 69.308594 27.625 C 69.40625 27.125 69.410156 27.128906 69.46875 27.742188 M 78.273438 33.121094 C 78.429688 33.34375 78.621094 33.738281 78.703125 34 C 78.738281 34.121094 78.777344 34.234375 78.789062 34.25 C 78.863281 34.351562 78.933594 35.128906 78.90625 35.558594 C 78.851562 36.527344 78.40625 37.417969 77.808594 37.769531 C 77.132812 38.164062 76.609375 37.234375 76.816406 36.003906 C 76.863281 35.730469 76.894531 35.574219 76.921875 35.515625 C 76.933594 35.488281 76.976562 35.34375 77.019531 35.195312 C 77.0625 35.042969 77.136719 34.835938 77.183594 34.730469 C 77.230469 34.625 77.269531 34.53125 77.269531 34.519531 C 77.269531 34.425781 78.101562 32.96875 78.15625 32.96875 C 78.160156 32.96875 78.210938 33.035156 78.273438 33.121094 M 9.042969 34.328125 C 9.089844 34.367188 9.15625 34.414062 9.1875 34.433594 C 9.828125 34.863281 10.609375 35.84375 10.90625 36.589844 C 10.949219 36.699219 10.992188 36.796875 11.003906 36.8125 C 11.035156 36.851562 11.148438 37.335938 11.175781 37.554688 C 11.375 39.003906 10.539062 40.078125 9.589844 39.601562 C 8.507812 39.054688 7.964844 36.945312 8.476562 35.28125 C 8.507812 35.179688 8.554688 35.023438 8.582031 34.933594 C 8.617188 34.792969 8.8125 34.300781 8.855469 34.234375 C 8.871094 34.207031 8.917969 34.230469 9.042969 34.328125 M 53.929688 45.570312 C 53.929688 45.609375 52.941406 46.445312 52.757812 46.558594 C 52.71875 46.582031 52.675781 46.613281 52.65625 46.632812 C 52.625 46.660156 52.363281 46.835938 51.976562 47.089844 C 51.753906 47.234375 51.179688 47.550781 50.90625 47.683594 C 50.808594 47.726562 50.648438 47.804688 50.542969 47.851562 C 50.230469 48.003906 49.917969 48.140625 49.761719 48.195312 C 49.679688 48.226562 49.554688 48.277344 49.488281 48.308594 C 49.417969 48.335938 49.25 48.398438 49.113281 48.445312 C 48.976562 48.488281 48.851562 48.535156 48.839844 48.546875 C 48.824219 48.554688 48.675781 48.605469 48.503906 48.65625 C 48.332031 48.707031 48.1875 48.757812 48.183594 48.769531 C 48.179688 48.78125 48.160156 48.792969 48.144531 48.792969 C 48.105469 48.792969 47.382812 48.988281 47.355469 49.007812 C 47.332031 49.023438 47.035156 49.097656 46.722656 49.167969 C 46.585938 49.195312 46.464844 49.230469 46.449219 49.242188 C 46.4375 49.25 46.203125 49.300781 45.929688 49.351562 C 45.65625 49.402344 45.40625 49.453125 45.378906 49.464844 C 45.324219 49.492188 44.410156 49.625 44 49.664062 C 43.84375 49.679688 43.691406 49.703125 43.664062 49.714844 C 43.40625 49.824219 40.574219 49.824219 40.429688 49.714844 C 40.414062 49.703125 40.335938 49.6875 40.253906 49.675781 C 39.914062 49.636719 39.273438 49.5 39.246094 49.460938 C 39.238281 49.453125 39.1875 49.433594 39.132812 49.417969 C 38.859375 49.34375 38.472656 49.113281 38.402344 48.980469 C 38.316406 48.816406 38.683594 48.558594 39.222656 48.40625 C 39.351562 48.367188 39.46875 48.328125 39.484375 48.316406 C 39.5 48.308594 39.757812 48.246094 40.058594 48.183594 C 40.8125 48.023438 40.917969 48.003906 41.410156 47.933594 C 41.652344 47.898438 41.871094 47.859375 41.898438 47.847656 C 41.925781 47.835938 42.253906 47.785156 42.632812 47.734375 C 43.007812 47.6875 43.386719 47.632812 43.476562 47.613281 C 43.566406 47.59375 43.777344 47.558594 43.949219 47.535156 C 44.667969 47.445312 45.011719 47.394531 45.058594 47.375 C 45.085938 47.363281 45.410156 47.3125 45.777344 47.265625 C 46.148438 47.214844 46.472656 47.164062 46.5 47.152344 C 46.527344 47.140625 46.746094 47.101562 46.984375 47.066406 C 47.796875 46.945312 47.917969 46.925781 47.980469 46.902344 C 48.015625 46.890625 48.296875 46.839844 48.601562 46.789062 C 48.910156 46.738281 49.175781 46.6875 49.1875 46.679688 C 49.203125 46.667969 49.261719 46.652344 49.324219 46.640625 C 49.621094 46.597656 50.261719 46.472656 50.308594 46.453125 C 50.335938 46.441406 50.589844 46.386719 50.875 46.332031 C 51.160156 46.273438 51.410156 46.21875 51.433594 46.207031 C 51.457031 46.191406 51.671875 46.140625 51.914062 46.089844 C 52.152344 46.039062 52.355469 45.992188 52.359375 45.984375 C 52.367188 45.972656 52.558594 45.921875 52.785156 45.871094 C 53.007812 45.820312 53.222656 45.765625 53.257812 45.75 C 53.410156 45.683594 53.929688 45.546875 53.929688 45.570312 M 19.152344 46.765625 C 19.269531 47.675781 19.507812 48.78125 19.660156 49.125 C 19.6875 49.179688 19.726562 49.289062 19.75 49.363281 C 19.894531 49.824219 20.296875 50.476562 20.558594 50.683594 C 20.8125 50.882812 21.367188 51.003906 21.507812 50.890625 C 21.527344 50.878906 21.585938 50.851562 21.640625 50.832031 C 21.933594 50.738281 22.46875 50.164062 22.625 49.769531 C 22.640625 49.722656 22.660156 49.691406 22.667969 49.699219 C 22.6875 49.71875 22.496094 50.4375 22.453125 50.496094 C 22.445312 50.511719 22.402344 50.601562 22.367188 50.703125 C 21.972656 51.734375 21.097656 52.203125 20.433594 51.734375 C 19.523438 51.089844 19.09375 49.515625 19.089844 46.804688 C 19.089844 46.410156 19.105469 46.402344 19.152344 46.765625 "/></g></g></svg>