<svg xmlns="http://www.w3.org/2000/svg" xmlns:xlink="http://www.w3.org/1999/xlink" width="117" zoomAndPan="magnify" viewBox="0 0 87.75 67.499998" height="90" preserveAspectRatio="xMidYMid meet" version="1.2"><defs><clipPath id="cb48a9d444"><path d="M 11.328125 1.078125 L 28 1.078125 L 28 18 L 11.328125 18 Z M 11.328125 1.078125 "/></clipPath><clipPath id="4b79fafa33"><path d="M 60 4 L 76.097656 4 L 76.097656 21 L 60 21 Z M 60 4 "/></clipPath><clipPath id="d24c7069c1"><path d="M 12 49 L 29 49 L 29 65.847656 L 12 65.847656 Z M 12 49 "/></clipPath><clipPath id="f1ff5bc42f"><path d="M 50 1.078125 L 57 1.078125 L 57 8 L 50 8 Z M 50 1.078125 "/></clipPath><clipPath id="ad6f2a6591"><path d="M 32 1.078125 L 47 1.078125 L 47 30 L 32 30 Z M 32 1.078125 "/></clipPath><clipPath id="4512a508c4"><path d="M 58 56 L 70 56 L 70 65.847656 L 58 65.847656 Z M 58 56 "/></clipPath></defs><g id="62b822145b"><g clip-rule="nonzero" clip-path="url(#cb48a9d444)"><path style=" stroke:none;fill-rule:nonzero;fill:#6b513c;fill-opacity:1;" d="M 13.339844 9.132812 L 16.136719 10.253906 C 17.078125 10.628906 17.832031 11.382812 18.207031 12.324219 L 19.332031 15.125 L 20.453125 12.324219 C 20.828125 11.382812 21.582031 10.628906 22.523438 10.253906 L 25.324219 9.132812 L 22.523438 8.015625 C 21.582031 7.640625 20.828125 6.886719 20.453125 5.945312 L 19.332031 3.140625 L 18.207031 5.945312 C 17.832031 6.886719 17.078125 7.640625 16.136719 8.015625 Z M 19.332031 17.085938 C 19.113281 17.085938 18.921875 16.953125 18.835938 16.75 L 17.222656 12.714844 C 16.953125 12.046875 16.414062 11.507812 15.746094 11.238281 L 11.710938 9.628906 C 11.511719 9.542969 11.378906 9.351562 11.378906 9.132812 C 11.378906 8.917969 11.511719 8.722656 11.710938 8.640625 L 15.746094 7.03125 C 16.414062 6.761719 16.953125 6.222656 17.222656 5.550781 L 18.835938 1.519531 C 19 1.113281 19.660156 1.113281 19.824219 1.519531 L 21.4375 5.550781 C 21.707031 6.222656 22.246094 6.761719 22.917969 7.03125 L 26.945312 8.640625 C 27.148438 8.722656 27.28125 8.917969 27.28125 9.132812 C 27.28125 9.351562 27.148438 9.542969 26.945312 9.628906 L 22.917969 11.238281 C 22.246094 11.507812 21.707031 12.046875 21.4375 12.714844 L 19.824219 16.75 C 19.742188 16.953125 19.546875 17.085938 19.332031 17.085938 "/></g><g clip-rule="nonzero" clip-path="url(#4b79fafa33)"><path style=" stroke:none;fill-rule:nonzero;fill:#6b513c;fill-opacity:1;" d="M 62.101562 12.316406 L 64.902344 13.433594 C 65.839844 13.808594 66.59375 14.5625 66.972656 15.503906 L 68.09375 18.304688 L 69.214844 15.503906 C 69.59375 14.5625 70.347656 13.808594 71.285156 13.433594 L 74.085938 12.316406 L 71.285156 11.195312 C 70.347656 10.820312 69.59375 10.066406 69.214844 9.125 L 68.09375 6.324219 L 66.972656 9.125 C 66.59375 10.066406 65.839844 10.820312 64.902344 11.195312 Z M 68.09375 20.265625 C 67.878906 20.265625 67.679688 20.132812 67.601562 19.929688 L 65.984375 15.894531 C 65.714844 15.226562 65.179688 14.6875 64.507812 14.417969 L 60.480469 12.808594 C 60.277344 12.722656 60.144531 12.53125 60.144531 12.316406 C 60.144531 12.097656 60.277344 11.90625 60.480469 11.820312 L 64.507812 10.210938 C 65.179688 9.941406 65.714844 9.402344 65.984375 8.734375 L 67.601562 4.699219 C 67.761719 4.292969 68.425781 4.292969 68.585938 4.699219 L 70.203125 8.734375 C 70.46875 9.402344 71.007812 9.941406 71.679688 10.210938 L 75.707031 11.820312 C 75.910156 11.90625 76.042969 12.097656 76.042969 12.316406 C 76.042969 12.53125 75.910156 12.722656 75.707031 12.808594 L 71.679688 14.417969 C 71.007812 14.6875 70.46875 15.226562 70.203125 15.894531 L 68.585938 19.929688 C 68.507812 20.132812 68.308594 20.265625 68.09375 20.265625 "/></g><g clip-rule="nonzero" clip-path="url(#d24c7069c1)"><path style=" stroke:none;fill-rule:nonzero;fill:#6b513c;fill-opacity:1;" d="M 14.398438 57.898438 L 17.199219 59.015625 C 18.136719 59.390625 18.890625 60.144531 19.269531 61.085938 L 20.390625 63.890625 L 21.511719 61.085938 C 21.890625 60.144531 22.644531 59.390625 23.582031 59.015625 L 26.382812 57.898438 L 23.582031 56.78125 C 22.644531 56.402344 21.890625 55.648438 21.511719 54.710938 L 20.390625 51.90625 L 19.269531 54.710938 C 18.890625 55.648438 18.136719 56.402344 17.199219 56.78125 Z M 20.390625 65.847656 C 20.175781 65.847656 19.980469 65.714844 19.898438 65.515625 L 18.28125 61.480469 C 18.011719 60.808594 17.476562 60.269531 16.804688 60 L 12.769531 58.390625 C 12.574219 58.308594 12.441406 58.113281 12.441406 57.898438 C 12.441406 57.683594 12.574219 57.488281 12.769531 57.40625 L 16.804688 55.792969 C 17.476562 55.523438 18.011719 54.988281 18.28125 54.316406 L 19.898438 50.28125 C 20.058594 49.875 20.722656 49.875 20.882812 50.28125 L 22.5 54.316406 C 22.765625 54.988281 23.304688 55.523438 23.976562 55.792969 L 28.003906 57.40625 C 28.207031 57.488281 28.339844 57.683594 28.339844 57.898438 C 28.339844 58.113281 28.207031 58.308594 28.003906 58.390625 L 23.976562 60 C 23.304688 60.269531 22.765625 60.808594 22.5 61.480469 L 20.882812 65.515625 C 20.804688 65.714844 20.605469 65.847656 20.390625 65.847656 "/></g><path style=" stroke:none;fill-rule:nonzero;fill:#6b513c;fill-opacity:1;" d="M 15.621094 37.226562 C 14.453125 37.226562 13.5 38.179688 13.5 39.347656 C 13.5 40.515625 14.453125 41.464844 15.621094 41.464844 C 16.789062 41.464844 17.742188 40.515625 17.742188 39.347656 C 17.742188 38.179688 16.789062 37.226562 15.621094 37.226562 Z M 15.621094 42.527344 C 13.863281 42.527344 12.441406 41.101562 12.441406 39.347656 C 12.441406 37.589844 13.863281 36.167969 15.621094 36.167969 C 17.375 36.167969 18.800781 37.589844 18.800781 39.347656 C 18.800781 41.101562 17.375 42.527344 15.621094 42.527344 "/><path style=" stroke:none;fill-rule:nonzero;fill:#6b513c;fill-opacity:1;" d="M 16.148438 25.566406 C 16.148438 24.6875 15.4375 23.976562 14.558594 23.976562 C 13.683594 23.976562 12.96875 24.6875 12.96875 25.566406 C 12.96875 26.441406 13.683594 27.15625 14.558594 27.15625 C 15.4375 27.15625 16.148438 26.441406 16.148438 25.566406 "/><path style=" stroke:none;fill-rule:nonzero;fill:#6b513c;fill-opacity:1;" d="M 34.171875 42.527344 C 34.171875 41.648438 33.460938 40.9375 32.582031 40.9375 C 31.703125 40.9375 30.992188 41.648438 30.992188 42.527344 C 30.992188 43.40625 31.703125 44.117188 32.582031 44.117188 C 33.460938 44.117188 34.171875 43.40625 34.171875 42.527344 "/><path style=" stroke:none;fill-rule:nonzero;fill:#6b513c;fill-opacity:1;" d="M 75.515625 26.625 C 75.515625 25.746094 74.800781 25.035156 73.925781 25.035156 C 73.046875 25.035156 72.332031 25.746094 72.332031 26.625 C 72.332031 27.503906 73.046875 28.214844 73.925781 28.214844 C 74.800781 28.214844 75.515625 27.503906 75.515625 26.625 "/><g clip-rule="nonzero" clip-path="url(#f1ff5bc42f)"><path style=" stroke:none;fill-rule:nonzero;fill:#6b513c;fill-opacity:1;" d="M 53.78125 2.242188 C 52.613281 2.242188 51.664062 3.195312 51.664062 4.363281 C 51.664062 5.53125 52.613281 6.484375 53.78125 6.484375 C 54.949219 6.484375 55.902344 5.53125 55.902344 4.363281 C 55.902344 3.195312 54.949219 2.242188 53.78125 2.242188 Z M 53.78125 7.542969 C 52.027344 7.542969 50.601562 6.121094 50.601562 4.363281 C 50.601562 2.609375 52.027344 1.183594 53.78125 1.183594 C 55.539062 1.183594 56.964844 2.609375 56.964844 4.363281 C 56.964844 6.121094 55.539062 7.542969 53.78125 7.542969 "/></g><path style=" stroke:none;fill-rule:nonzero;fill:#6b513c;fill-opacity:1;" d="M 23.21875 30.839844 C 23.933594 32.703125 26.585938 33.507812 29.121094 32.632812 C 30.578125 32.128906 31.726562 31.171875 32.269531 30.007812 C 32.636719 29.226562 32.679688 28.429688 32.402344 27.710938 C 31.6875 25.847656 29.035156 25.042969 26.503906 25.917969 C 25.042969 26.421875 23.894531 27.378906 23.351562 28.542969 C 22.988281 29.324219 22.941406 30.121094 23.21875 30.839844 Z M 27.074219 34.042969 C 24.859375 34.042969 22.910156 32.988281 22.230469 31.222656 C 21.851562 30.242188 21.910156 29.128906 22.390625 28.09375 C 23.058594 26.671875 24.429688 25.511719 26.160156 24.914062 C 29.230469 23.859375 32.476562 24.941406 33.394531 27.328125 C 33.769531 28.3125 33.710938 29.421875 33.230469 30.457031 C 32.566406 31.878906 31.195312 33.039062 29.464844 33.636719 C 28.664062 33.910156 27.851562 34.042969 27.074219 34.042969 "/><g clip-rule="nonzero" clip-path="url(#ad6f2a6591)"><path style=" stroke:none;fill-rule:nonzero;fill:#6b513c;fill-opacity:1;" d="M 33.640625 7.015625 C 33.640625 8.984375 36.679688 10.632812 39.621094 12.222656 C 41.75 13.375 43.925781 14.554688 45.300781 15.992188 L 45.300781 15.496094 C 45.300781 10.976562 41.511719 8.535156 37.851562 6.171875 C 36.289062 5.164062 34.789062 4.195312 33.640625 3.097656 Z M 33.113281 29.203125 C 32.816406 29.203125 32.582031 28.964844 32.582031 28.671875 L 32.582031 1.714844 C 32.582031 1.484375 32.726562 1.285156 32.945312 1.210938 C 33.15625 1.136719 33.398438 1.210938 33.539062 1.394531 C 34.597656 2.8125 36.457031 4.011719 38.429688 5.285156 C 42.148438 7.679688 46.363281 10.398438 46.363281 15.496094 L 46.363281 17.613281 C 46.363281 17.859375 46.191406 18.074219 45.953125 18.132812 C 45.710938 18.183594 45.46875 18.070312 45.355469 17.851562 C 44.457031 16.050781 41.742188 14.578125 39.117188 13.15625 C 36.945312 11.980469 34.851562 10.84375 33.640625 9.492188 L 33.640625 28.671875 C 33.640625 28.964844 33.40625 29.203125 33.113281 29.203125 "/></g><path style=" stroke:none;fill-rule:nonzero;fill:#6b513c;fill-opacity:1;" d="M 38.058594 54.164062 C 38.777344 56.027344 41.425781 56.828125 43.960938 55.957031 C 45.417969 55.449219 46.570312 54.492188 47.113281 53.332031 C 47.476562 52.546875 47.523438 51.753906 47.246094 51.03125 C 46.527344 49.167969 43.878906 48.367188 41.34375 49.238281 C 39.886719 49.746094 38.734375 50.699219 38.191406 51.863281 C 37.828125 52.648438 37.78125 53.441406 38.058594 54.164062 Z M 41.914062 57.363281 C 39.699219 57.363281 37.75 56.3125 37.070312 54.542969 C 36.691406 53.5625 36.75 52.453125 37.230469 51.417969 C 37.898438 49.992188 39.269531 48.832031 41 48.238281 C 44.074219 47.179688 47.320312 48.261719 48.234375 50.652344 C 48.609375 51.632812 48.554688 52.742188 48.074219 53.777344 C 47.40625 55.203125 46.035156 56.359375 44.304688 56.957031 C 43.503906 57.234375 42.695312 57.363281 41.914062 57.363281 "/><path style=" stroke:none;fill-rule:nonzero;fill:#6b513c;fill-opacity:1;" d="M 69.152344 61.003906 C 68.859375 61.003906 68.625 60.765625 68.625 60.472656 L 68.625 33.875 L 48.480469 25.816406 L 48.480469 51.992188 C 48.480469 52.285156 48.246094 52.523438 47.953125 52.523438 C 47.660156 52.523438 47.421875 52.285156 47.421875 51.992188 L 47.421875 25.035156 C 47.421875 24.863281 47.507812 24.695312 47.652344 24.597656 C 47.800781 24.496094 47.984375 24.476562 48.148438 24.542969 L 69.347656 33.023438 C 69.550781 33.105469 69.683594 33.300781 69.683594 33.515625 L 69.683594 60.472656 C 69.683594 60.765625 69.449219 61.003906 69.152344 61.003906 "/><g clip-rule="nonzero" clip-path="url(#4512a508c4)"><path style=" stroke:none;fill-rule:nonzero;fill:#6b513c;fill-opacity:1;" d="M 59.261719 62.644531 C 59.976562 64.511719 62.628906 65.308594 65.160156 64.4375 C 66.621094 63.929688 67.769531 62.972656 68.3125 61.8125 C 68.675781 61.027344 68.722656 60.234375 68.445312 59.511719 C 67.730469 57.644531 65.078125 56.847656 62.542969 57.71875 C 61.085938 58.226562 59.9375 59.179688 59.394531 60.34375 C 59.027344 61.128906 58.984375 61.921875 59.261719 62.644531 Z M 63.117188 65.84375 C 60.902344 65.84375 58.949219 64.792969 58.269531 63.023438 C 57.894531 62.042969 57.953125 60.933594 58.433594 59.898438 C 59.101562 58.472656 60.46875 57.3125 62.199219 56.71875 C 65.273438 55.65625 68.519531 56.742188 69.433594 59.132812 C 69.8125 60.113281 69.753906 61.222656 69.273438 62.257812 C 68.605469 63.683594 67.238281 64.84375 65.503906 65.4375 C 64.707031 65.714844 63.894531 65.84375 63.117188 65.84375 "/></g><path style=" stroke:none;fill-rule:nonzero;fill:#6b513c;fill-opacity:1;" d="M 69.152344 41.464844 C 69.085938 41.464844 69.019531 41.453125 68.960938 41.429688 L 47.757812 32.949219 C 47.484375 32.839844 47.351562 32.53125 47.460938 32.261719 C 47.570312 31.988281 47.878906 31.855469 48.148438 31.964844 L 69.347656 40.445312 C 69.621094 40.550781 69.753906 40.863281 69.648438 41.132812 C 69.5625 41.34375 69.363281 41.464844 69.152344 41.464844 "/></g></svg>